<svg xmlns="http://www.w3.org/2000/svg" xmlns:xlink="http://www.w3.org/1999/xlink" width="190" height="190" viewBox="0 0 190 190">
  <defs>
    <style>
      .cls-1 {
        fill: #fff;
      }

      .cls-2 {
        fill: #f16d39;
      }

      .cls-3 {
        clip-path: url(#clip-path);
      }
    </style>
    <clipPath id="clip-path">
      <rect id="Rectángulo_97" data-name="Rectángulo 97" class="cls-1" width="121.007" height="118.548"/>
    </clipPath>
  </defs>
  <g id="Grupo_93" data-name="Grupo 93" transform="translate(-1295 -1240)">
    <circle id="Elipse_5" data-name="Elipse 5" class="cls-2" cx="95" cy="95" r="95" transform="translate(1295 1240)"/>
    <g id="Grupo_88" data-name="Grupo 88" transform="translate(1329.993 1270.031)">
      <g id="Grupo_87" data-name="Grupo 87" class="cls-3">
        <path id="Trazado_176" data-name="Trazado 176" class="cls-1" d="M121.007,115.265c-.918,2.431-2.719,3.286-5.256,3.283q-55.3-.053-110.61-.029c-3.662,0-5.136-1.5-5.131-5.187,0-1.418-.018-2.836-.006-4.254a4.043,4.043,0,0,1,4.108-4.241q7.444-.076,14.889.006c1.16.014,1.565-.235,1.538-1.485-.083-3.9-.036-7.8-.009-11.7.01-1.449.9-2.227,2.149-1.926a1.834,1.834,0,0,1,1.384,2.06c.011,1.812,0,3.624.005,5.435V98.8c.65-.624,1.094-1.036,1.522-1.463,5.964-5.954,12.064-11.782,17.816-17.934,2.12-2.268,3.907-4.883,6.2-7.036.229-.215.444-.447.668-.669,2.637-2.613,2.633-2.612,1.74-6.084-.068-.264-.144-.441-.43-.444-3.454-.031-6.951-.334-10.021,1.806a10.4,10.4,0,0,0-4.72,8.043c-.155,1.986-.773,2.788-2.085,2.649-1.156-.122-1.594-1.029-1.473-2.869a14.261,14.261,0,0,1,3.891-8.768c.13-.145.266-.284.393-.431.02-.022.01-.07.03-.247a11.956,11.956,0,0,0-6.691,2.131,14.4,14.4,0,0,0-6.851,12.463c-.015.945.027,1.892-.007,2.836-.047,1.3-.727,2.057-1.8,2.059-1.105,0-1.693-.7-1.736-2.064-.126-3.966.108-7.857,2.139-11.425a18.051,18.051,0,0,1,16.036-9.715c4.132-.125,8.271-.018,12.407-.033.281,0,.716.194.831-.2.147-.5-.391-.52-.669-.65a16.189,16.189,0,0,1-8.81-9.8c-.268-.787-.6-1.136-1.454-1.153a8.685,8.685,0,0,1-6.882-13.337,2.746,2.746,0,0,0,.4-1.554c-.014-2.915-.055-5.831.006-8.745a25.936,25.936,0,0,1,5.16-15.259c.821-1.107,1.692-1.339,2.6-.722.9.605,1.009,1.711.22,2.8a23.1,23.1,0,0,0-4.457,14.357c.027,1.654.02,3.309,0,4.963-.009.606.169.813.745.522a.324.324,0,0,1,.114-.03,4.788,4.788,0,0,0,4.21-2.476c.792-1.4,2.513-1.777,4.165-1.776,5,.005,10.006-.024,15.008.034a1.858,1.858,0,0,0,1.93-1.148c.55-1.086,1.176-2.137,1.821-3.171a2.428,2.428,0,0,1,4.323.023c.7,1.136,1.366,2.3,2.01,3.473a1.393,1.393,0,0,0,1.4.808,5.3,5.3,0,0,1,5.131,3.111,1.131,1.131,0,0,0,1.059.757,9.549,9.549,0,0,1,1.408.148c1.6.323,1.632.333,1.592-1.363-.081-3.376.206-6.754-.42-10.124A21.875,21.875,0,0,0,66.307,4.176,22.755,22.755,0,0,0,48.876,7.068c-.168.1-.333.21-.506.3A1.727,1.727,0,0,1,45.823,6.8a1.721,1.721,0,0,1,.726-2.433A26.478,26.478,0,0,1,52.344,1.5,25.534,25.534,0,0,1,84.26,14.99a24.577,24.577,0,0,1,2.23,10.141c.019,3.269.014,6.539,0,9.808a2.767,2.767,0,0,0,.407,1.551A8.662,8.662,0,0,1,80,49.81a1.308,1.308,0,0,0-1.4,1.06,16.042,16.042,0,0,1-8.761,9.836c-.3.139-.826.181-.76.611.089.577.646.29.976.292,3.9.022,7.8,0,11.7.013a18.387,18.387,0,0,1,18.631,16,20.44,20.44,0,0,1,.087,3.067c.009,7.6.026,15.2,0,22.807,0,.986.191,1.366,1.29,1.35,4.608-.068,9.219.055,13.825-.066,2.56-.067,4.445.678,5.425,3.157Zm-60.518-6.9v0H7.8c-1.063,0-2.127.022-3.19-.006-.717-.019-1.1.185-1.078,1,.043,1.535.035,3.072,0,4.607-.016.732.346.988,1,1,.394.008.787.007,1.181.007l110.108.006c.2,0,.394,0,.591,0,.733.028,1.081-.286,1.062-1.055-.031-1.3-.007-2.6-.006-3.9,0-1.667,0-1.668-1.686-1.668H60.489M55.61,32.1c-2.756,0-5.512-.017-8.268.006-1.565.013-2.195.685-2.2,2.25,0,1.142-.032,2.285,0,3.425.109,3.375-.335,6.771.223,10.124a12.225,12.225,0,0,0,8.857,10.164c2.977.98,6.083.546,9.139.538a12.814,12.814,0,0,0,12.52-13.345c-.089-3.5-.011-7.008-.009-10.512,0-2.107-.541-2.713-2.642-2.632a3.469,3.469,0,0,1-3.558-1.967c-.428-.8-.747-2.2-1.516-2.167-.7.026-1.052,1.419-1.5,2.236a3.334,3.334,0,0,1-3.252,1.892c-2.6-.051-5.2-.014-7.8-.011m23.663,72.646.32-.408c-.637-.52-1.314-1-1.9-1.571a1.772,1.772,0,0,1-.254-2.7c.777-.8,1.723-.746,2.679.19,1.322,1.294,2.639,2.594,3.925,3.923a1.962,1.962,0,0,0,1.557.638c3.347-.024,6.694,0,10.041-.02.427,0,1.029.275,1.262-.3.223-.551-.2-.934-.579-1.307-3.016-3-6.034-5.993-9.02-9.021a1.162,1.162,0,0,0-1.694-.26,12.931,12.931,0,0,1-6.752,1.78,1.747,1.747,0,0,1-.333-3.477,10.6,10.6,0,0,1,1.291-.1,8.894,8.894,0,0,0,4.023-1.271c-.994-1.247-1.869-2.554-3.747-1.623a3.056,3.056,0,0,1-1.052.095,1.657,1.657,0,0,1-1.984-1.257,1.607,1.607,0,0,1,1.053-2.089c.578-.217.572-.43.173-.8a5.458,5.458,0,0,1-.665-.669c-.535-.71-.974-.788-1.652-.068-1.673,1.776-3.419,3.485-5.175,5.18-.51.492-.576.792-.02,1.3,1.044.956,2.025,1.983,3.017,2.994s1.065,1.979.244,2.783c-.776.76-1.728.67-2.69-.274-.871-.855-1.782-1.677-2.578-2.6-.745-.862-1.451-1.343-2.564-.606a3.183,3.183,0,0,1-1.245.312c-2.921.453-5.062-.894-6.934-2.954-1.185-1.3-1.239-1.273-2.486-.026q-6.6,6.6-13.178,13.216c-.26.262-.647.457-.685.985Zm17.434-5.9a3.165,3.165,0,0,0,.226-.61c.007-6.336.155-12.676-.028-19.006A14.582,14.582,0,0,0,82.32,65.171c-3.817-.03-7.635,0-11.453,0-1.844,0-1.837,0-2.071,1.832-.076.592-.056.844.719.652a4.55,4.55,0,0,1,4.463,1.189c1.439,1.4,2.887,2.789,4.24,4.266a6.224,6.224,0,0,1,1.354,6.582,1.946,1.946,0,0,0,.74,2.552c.656.522,1.129,1.744,1.885,1.537.885-.243.744-1.517.934-2.381.279-1.267.893-1.786,2-1.639a1.756,1.756,0,0,1,1.487,2.057,6.038,6.038,0,0,1-1.091,3.549c-.882,1.078-.5,1.681.34,2.5.713.693,1.075.6,1.587-.137a11.829,11.829,0,0,0,2.016-6.059c.1-1.365.835-2.018,1.887-1.932,1.071.087,1.6.843,1.578,2.2A13.531,13.531,0,0,1,89.8,90.384c-.473.585-.481.931.084,1.45,1.071.984,2.075,2.041,3.088,3.086,1.218,1.257,2.416,2.533,3.738,3.922m-66.49,5.975c1.692,0,3.385-.03,5.076.015a2.057,2.057,0,0,0,1.663-.655q6.485-6.528,13.024-13c.568-.562.6-.842-.009-1.435-1.773-1.721-3.735-3.286-5.088-5.387-.485-.754-.714-.635-1.239-.1q-5.52,5.58-11.082,11.118-4,4.009-8.016,8.01c-.33.328-.6.683-.437,1.137.177.508.675.287,1.031.292,1.692.023,3.385.01,5.077.013M76.373,77.624A3.262,3.262,0,0,0,75.306,75.1c-1.109-1.117-2.231-2.221-3.343-3.335-.526-.528-1.112-.983-1.864-.546s-.654,1.092-.421,1.856a1.7,1.7,0,0,1-2.161,2.242c-1.77-.4-2.2.03-1.837,1.8a1.764,1.764,0,0,1-2.191,2.262c-1.8-.452-2.2-.043-1.831,1.87a1.737,1.737,0,0,1-2.383,2.1c-.669-.231-1.252-.288-1.667.351a1.321,1.321,0,0,0,.3,1.8c1.2,1.191,2.37,2.418,3.6,3.577a3.285,3.285,0,0,0,4.848-.008c3.032-2.975,6.013-6,9.016-9.006a3.208,3.208,0,0,0,1-2.431M47.492,80.891a2.872,2.872,0,0,0,.875,2.325c1.239,1.264,2.494,2.511,3.745,3.762a1.3,1.3,0,0,0,1.693.337c.683-.4.47-.957.285-1.543a4.545,4.545,0,0,1,.879-4.518c.736-.889,1.992-1.017,2.734-1.7s.7-2.2,1.7-2.7a7.477,7.477,0,0,0,3.681-3.722c.289-.646,1.52-.69,1.339-1.418-.156-.629-.952-1.1-1.47-1.638-.218-.226-.441-.449-.674-.66a3.291,3.291,0,0,0-4.762.026c-3.028,2.976-6.015,5.994-9.014,9a3.108,3.108,0,0,0-1.016,2.448M79.4,41.171c0,1.179,0,2.358,0,3.537-.009,1.773.185,1.916,1.853,1.324a6.126,6.126,0,0,0,.652-.267,5.179,5.179,0,0,0,2.712-5.631,5.094,5.094,0,0,0-3.946-4.044c-.734-.121-1.388-.216-1.3.957.107,1.367.025,2.749.027,4.125M41.6,41.12c0-1.451-.022-2.9.011-4.353.014-.615-.154-.815-.806-.761a5.129,5.129,0,0,0-4.5,5.176,5.213,5.213,0,0,0,4.454,5.109c.712.066.872-.16.854-.818-.04-1.45-.012-2.9-.015-4.353M60.527,62.086v.045c-1.1,0-2.2.041-3.3-.009-1.689-.078-1.688-.1-1.688,1.639,0,.55,0,1.1,0,1.651,0,.63.127.875.817.488a6.7,6.7,0,0,1,8.086.727c.631.509.756.167.894-.378a20.477,20.477,0,0,0,.143-3.4c.055-.655-.245-.785-.827-.77-1.374.034-2.749.011-4.123.011" transform="translate(0 0)"/>
        <path id="Trazado_177" data-name="Trazado 177" class="cls-1" d="M61.859,132a6.793,6.793,0,0,1-6.281-4.147,6.719,6.719,0,0,1,1.431-7.3,6.487,6.487,0,0,1,7.494-1.333c2.384,1.2,4.685,2.573,6.967,3.96,1.409.857,1.708,2.956.421,3.832A38.979,38.979,0,0,1,63.27,131.8a3.71,3.71,0,0,1-1.411.2m6.255-6.678a54.208,54.208,0,0,0-5.421-3.01,2.963,2.963,0,0,0-3.45,1.066,3.116,3.116,0,0,0,0,3.824,2.971,2.971,0,0,0,3.446,1.076c1.867-.722,3.455-1.948,5.43-2.955" transform="translate(-42.029 -90.485)"/>
        <path id="Trazado_178" data-name="Trazado 178" class="cls-1" d="M392.433,132.064a6.773,6.773,0,0,1-3.356-.952q-2.917-1.667-5.82-3.357c-2.214-1.3-2.211-3.509,0-4.791,2.04-1.182,4.068-2.387,6.14-3.511a6.494,6.494,0,0,1,7.553.912,6.619,6.619,0,0,1,1.808,7.4,6.777,6.777,0,0,1-6.327,4.3m-6.324-6.708c1.952,1.077,3.623,2.085,5.372,2.934a2.9,2.9,0,0,0,3.484-.943,3.078,3.078,0,0,0,.123-3.828,2.918,2.918,0,0,0-3.526-1.153c-1.791.85-3.488,1.9-5.453,2.989" transform="translate(-291.233 -90.545)"/>
        <path id="Trazado_179" data-name="Trazado 179" class="cls-1" d="M399.757,198.657a6.907,6.907,0,0,1-5.12,7.133,6.606,6.606,0,0,1-7.6-3.769,56.365,56.365,0,0,1-2.327-8.373,2.37,2.37,0,0,1,2.783-2.764,54.779,54.779,0,0,1,8.146,2.215,6.156,6.156,0,0,1,4.115,5.559m-3.537.618a2.877,2.877,0,0,0-2.052-2.964c-1.555-.5-3.148-.886-4.725-1.317-.5-.135-.787,0-.628.57.458,1.649.853,3.321,1.421,4.932a2.986,2.986,0,0,0,3.547,1.816,3.049,3.049,0,0,0,2.437-3.039" transform="translate(-293.568 -145.643)"/>
        <path id="Trazado_180" data-name="Trazado 180" class="cls-1" d="M61.874,199.3a6.659,6.659,0,0,1,5.061-6.464c2.175-.646,4.372-1.224,6.574-1.773,2.4-.6,3.9.964,3.278,3.388-.614,2.385-1.189,4.787-1.947,7.127a6.629,6.629,0,0,1-7.614,4.327,6.876,6.876,0,0,1-5.352-6.606m11.119-4.282a31.726,31.726,0,0,0-5.44,1.324,3.087,3.087,0,0,0-2.133,3.4,3.165,3.165,0,0,0,2.719,2.682,2.99,2.99,0,0,0,3.406-2.082c.528-1.708.943-3.451,1.448-5.328" transform="translate(-47.222 -145.719)"/>
        <path id="Trazado_181" data-name="Trazado 181" class="cls-1" d="M167.212,294.7c.19-4.092,3.875-7.674,7.741-7.518a1.737,1.737,0,0,1,1.862,1.447,1.636,1.636,0,0,1-.993,1.911,2.23,2.23,0,0,1-.791.169,4.309,4.309,0,0,0-4.259,4.058c-.017.117-.031.233-.053.349-.224,1.214-.944,1.848-1.963,1.731a1.856,1.856,0,0,1-1.544-2.146" transform="translate(-127.612 -219.169)"/>
        <path id="Trazado_182" data-name="Trazado 182" class="cls-1" d="M219.394,200.465c1.217.013,1.91.992,2.74,1.06s1.494-1.087,2.5-1.077a3.046,3.046,0,0,1,2.042.806.8.8,0,0,0,1.213.072c1.729-1.256,2.647-1.179,4.281.246.534.465,1.089.912,1.575,1.425a1.725,1.725,0,0,1,.069,2.443,1.646,1.646,0,0,1-2.42.137,2.527,2.527,0,0,1-.451-.379c-.672-.81-1.263-.843-2.127-.123a2.3,2.3,0,0,1-3.141-.071,1.225,1.225,0,0,0-1.882.012,2.422,2.422,0,0,1-3.342-.069c-.633-.521-1.033-.568-1.67.009-1.454,1.314-2.3,1.392-3.129.465s-.568-1.844.885-3.147c.9-.809,1.7-1.781,2.857-1.809" transform="translate(-164.227 -152.976)"/>
        <path id="Trazado_183" data-name="Trazado 183" class="cls-1" d="M241.872,159.839a4.22,4.22,0,0,1-4.048-4.1,4.318,4.318,0,0,1,3.99-4.191,1.7,1.7,0,0,1,1.863,1.449,1.607,1.607,0,0,1-1.183,2.01c-.427.145-1,.064-1.01.744-.011.653.576.557.938.666a1.643,1.643,0,0,1,1.273,1.964,1.62,1.62,0,0,1-1.823,1.462" transform="translate(-181.505 -115.658)"/>
        <path id="Trazado_184" data-name="Trazado 184" class="cls-1" d="M283.871,145.587c0,.432.026.866-.005,1.3a1.677,1.677,0,0,1-1.6,1.72,1.6,1.6,0,0,1-1.856-1.432A11.509,11.509,0,0,1,280.4,144a1.651,1.651,0,0,1,1.813-1.5,1.74,1.74,0,0,1,1.656,1.788c.017.431,0,.864.006,1.3" transform="translate(-213.918 -108.756)"/>
        <path id="Trazado_185" data-name="Trazado 185" class="cls-1" d="M215.537,145.478c0-.393-.015-.786,0-1.178a1.763,1.763,0,0,1,1.634-1.819,1.782,1.782,0,0,1,1.869,1.6,17.672,17.672,0,0,1,0,2.941,1.718,1.718,0,0,1-1.872,1.566,1.682,1.682,0,0,1-1.624-1.7c-.044-.467-.008-.942-.009-1.413" transform="translate(-164.486 -108.738)"/>
      </g>
    </g>
  </g>
</svg>
