<svg xmlns="http://www.w3.org/2000/svg" xmlns:xlink="http://www.w3.org/1999/xlink" width="190" height="190" viewBox="0 0 190 190">
  <defs>
    <style>
      .cls-1 {
        fill: #fff;
      }

      .cls-2 {
        fill: #f16d39;
      }

      .cls-3 {
        clip-path: url(#clip-path);
      }
    </style>
    <clipPath id="clip-path">
      <rect id="Rectángulo_68" data-name="Rectángulo 68" class="cls-1" width="120.906" height="116.667"/>
    </clipPath>
  </defs>
  <g id="Grupo_92" data-name="Grupo 92" transform="translate(-428 -1240)">
    <circle id="Elipse_4" data-name="Elipse 4" class="cls-2" cx="95" cy="95" r="95" transform="translate(428 1240)"/>
    <g id="Grupo_51" data-name="Grupo 51" transform="translate(462.547 1276.667)">
      <g id="Grupo_50" data-name="Grupo 50" class="cls-3">
        <path id="Trazado_131" data-name="Trazado 131" class="cls-1" d="M0,62.28a34.856,34.856,0,0,1,1.562-5.018A17.329,17.329,0,0,1,18.627,47.213a16.505,16.505,0,0,1,11.2,5.6,17.444,17.444,0,0,1,2.351,19.945c-3.059,5.9-10.467,9.668-16.746,8.827A17.555,17.555,0,0,1,.441,68.183C.319,67.633.413,67.007,0,66.53ZM15.587,76.4c0-.315-.009-.63,0-.944a1.659,1.659,0,1,1,3.3-.013A11.007,11.007,0,0,1,18.88,77.1c-.116.956.284,1.162,1.14.956a13.926,13.926,0,0,0,6.891-3.858c1.377-1.417,1.384-1.411-.247-2.389-.3-.182-.626-.338-.91-.545a1.8,1.8,0,0,1-.457-2.414,1.431,1.431,0,0,1,2.064-.431A15.74,15.74,0,0,1,29,69.348c.628.417.948.257,1.172-.438a13.761,13.761,0,0,0,.475-7.308c-.6-2.711-.609-2.708-3.035-1.328-.034.02-.066.044-.1.063a1.487,1.487,0,0,1-2.175-.372,1.669,1.669,0,0,1,.427-2.39,17.406,17.406,0,0,1,1.821-1.086c.428-.226.615-.413.24-.871a13.958,13.958,0,0,0-8.087-4.911c-.563-.122-.9,0-.854.693a18.851,18.851,0,0,1,0,2.124,1.642,1.642,0,0,1-3.284.034,13.213,13.213,0,0,1,0-2.005c.068-.758-.214-1.007-.937-.844a14.622,14.622,0,0,0-7.979,4.707c-.446.508-.319.786.228,1.072a16.347,16.347,0,0,1,1.823,1.083,1.7,1.7,0,0,1,.414,2.4,1.511,1.511,0,0,1-2.19.345c-.561-.361-1.191-.623-1.721-1.022-.605-.455-.806-.3-1.052.365a13.314,13.314,0,0,0,.012,9.53c.227.616.417.757.977.376.584-.4,1.221-.715,1.826-1.082a1.458,1.458,0,0,1,2.164.391A1.677,1.677,0,0,1,8.7,71.257a14.64,14.64,0,0,1-1.822,1.086c-.616.307-.584.6-.163,1.064a14.074,14.074,0,0,0,7.066,4.453c1.8.461,1.807.443,1.807-1.458" transform="translate(0 -32.277)"/>
        <path id="Trazado_132" data-name="Trazado 132" class="cls-1" d="M101,25.692l3.274-3.931c.3-.362.611-.72.906-1.088a1.75,1.75,0,0,1,2.28-.674,1.769,1.769,0,0,1,.759,2.164c-.332,1.568-.692,3.131-1.029,4.7-.088.409-.134.827-.205,1.281,4.642-1.527,5.425-3.983,4.071-7.577-.386-1.024-.53-1.976.434-2.635.922-.63,1.764-.163,2.53.529a41.523,41.523,0,0,1,10.108,13.067c2.614,5.55,2.757,11.034-.717,16.33a2.259,2.259,0,0,0-.263,1.354,72.378,72.378,0,0,1-.476,11.3,15.946,15.946,0,0,1-3.552,8.44,1.883,1.883,0,0,0-.473,1.387c.016,2.2.048,4.408-.018,6.61-.026.848.231,1.061,1.048,1.039a25.106,25.106,0,0,1,13.414,3.3C138.33,84.3,141.955,88.6,143.3,94.623a14.386,14.386,0,0,1,.378,3.143q0,14.4.008,28.8c0,1.5-.635,2.165-2.124,2.165q-34.647.007-69.295,0c-1.432,0-2.014-.574-2.015-1.986,0-9.758-.168-19.521.059-29.274.161-6.943,3.874-12.044,9.614-15.69a24.692,24.692,0,0,1,14.112-3.791c.955.023,1.311-.188,1.266-1.209-.083-1.846-.028-3.7-.013-5.547a1.3,1.3,0,0,0-.452-1.134c-2.785-2.385-3.863-5.641-4.51-9.084-.819-4.363-.46-8.779-.476-13.176a3.706,3.706,0,0,0-.388-1.684c-1.683-3.445-1.806-7.1-1.333-10.816a23.291,23.291,0,0,1,3.61-10.318,10.007,10.007,0,0,1,2.967-3,3.656,3.656,0,0,1,5.724,1.932c.192.506.337,1.029.564,1.731m-11.63,77.856h.007c0,6.847.021,13.7-.023,20.542-.007,1.036.207,1.377,1.326,1.372q16.764-.07,33.528,0c1.146.005,1.331-.373,1.326-1.392-.037-7.871-.021-15.741-.02-23.612,0-5.824-.015-11.649.024-17.472.006-.865-.206-1.23-1.111-1.371a40.124,40.124,0,0,0-5.52-.367,1.207,1.207,0,0,0-1.3.877c-1.859,4.284-3.749,8.555-5.637,12.826-1.158,2.62-2.332,5.233-3.5,7.848a1.641,1.641,0,0,1-1.525,1.115,1.624,1.624,0,0,1-1.488-1.155c-.216-.505-.45-1-.672-1.505q-4.187-9.474-8.361-18.954a1.469,1.469,0,0,0-1.665-1.061c-1.409.1-2.822.078-4.235.228-.889.094-1.179.379-1.174,1.3.04,6.926.022,13.852.022,20.778m3.772-52.415a43.262,43.262,0,0,0,.712,10.534c1.115,4.9,3.694,7.434,8.59,7.959a61.9,61.9,0,0,0,6.717.074q7.912-.018,9.747-7.75c1.338-5.65.864-11.4.909-17.123.006-.849-.474-1.175-1.435-.933a43.864,43.864,0,0,1-10.017,1.252A73.365,73.365,0,0,1,94.9,43.935c-1.51-.256-1.756-.044-1.76,1.538-.005,1.887,0,3.774,0,5.661m-7.072,52.994c0-6.8-.021-13.606.021-20.409.006-1.091-.3-1.192-1.2-.774a26.114,26.114,0,0,0-3.434,1.8C76.8,87.83,73.723,92.01,73.6,97.7c-.192,8.922-.041,17.852-.068,26.778,0,.79.246.982,1,.974,3.46-.037,6.921-.05,10.381.006.921.015,1.182-.211,1.175-1.159-.044-6.724-.023-13.448-.026-20.172m42.813-21.116a3.089,3.089,0,0,0-.062.438q-.006,20.591-.021,41.182c0,.729.295.821.91.817,3.225-.024,6.451-.045,9.675.009.877.015,1.019-.3,1.016-1.079-.025-8.811.009-17.622-.024-26.432-.024-6.379-5.2-13.083-11.494-14.935m-25.622-54.5c-.79.92-1.512,1.724-2.191,2.564a1.574,1.574,0,0,1-1.966.586A1.473,1.473,0,0,1,98.108,30a15.208,15.208,0,0,0-.447-4.082c-.357-1.558-.815-1.7-1.987-.612A11.4,11.4,0,0,0,93.3,29.067a23.134,23.134,0,0,0-2.047,11.107c.043.84.343,1.044,1.091.609a3.516,3.516,0,0,1,2.526-.311,65.709,65.709,0,0,0,6.492,1.025,46.877,46.877,0,0,0,11.869-.042c1.587-.236,3.141-.6,4.7-.967a4.269,4.269,0,0,1,4.33,1.558c1.8-6.045-3.155-14.192-7.29-17.815a10.985,10.985,0,0,1-10.361,7.912c-1.1-.018-1.612-.613-1.564-1.734.025-.578.414-1.1.214-1.9m3.435,69.172c.349.058.376-.159.453-.333q3.414-7.683,6.827-15.366a11.81,11.81,0,0,0,1.317-3.365c.211-2.211.062-4.456.062-6.761a18.158,18.158,0,0,1-2.208.661,39.768,39.768,0,0,1-13.8-.073c-.747-.138-.774.074-.767.644.019,1.415-.021,2.83.016,4.244a6.111,6.111,0,0,0,.16,2.442q3.976,8.973,7.94,17.905" transform="translate(-48.047 -12.072)"/>
        <path id="Trazado_133" data-name="Trazado 133" class="cls-1" d="M349.183.012c1.337,0,2.675.027,4.01-.009a2.086,2.086,0,0,1,2.121.948,2.066,2.066,0,0,1-.341,2.3q-3.478,5.607-6.938,11.225c-.179.291-.562.592-.4.922.2.418.7.193,1.065.2,1.69.025,3.382,0,5.072.017a1.616,1.616,0,0,1,1.816,1.575,1.6,1.6,0,0,1-1.8,1.706q-4.542.029-9.083,0c-1.671-.013-2.3-1.134-1.435-2.622,2.2-3.806,4.45-7.585,6.665-11.384.907-1.557.889-1.567-.941-1.568-1.416,0-2.831.009-4.247-.007-1.167-.012-1.878-.636-1.9-1.629A1.652,1.652,0,0,1,344.7.016c1.494-.016,2.989,0,4.483,0" transform="translate(-234.684 0)"/>
        <path id="Trazado_134" data-name="Trazado 134" class="cls-1" d="M308.138,24.214c-1.914,0-3.9.007-5.891,0-1.321-.007-2.1-.661-2.067-1.714.026-1,.774-1.576,2.074-1.578,2.873-.005,5.75.1,8.616-.035,1.761-.08,2.473,1.378,1.588,2.828-2.271,3.723-4.442,7.508-6.653,11.267-.119.2-.229.413-.364.606-.579.83-.162.947.611.933,1.613-.03,3.227-.014,4.84-.006,1.269.007,2.04.633,2.023,1.623a1.81,1.81,0,0,1-2.028,1.671c-2.833.011-5.667-.016-8.5.01A1.873,1.873,0,0,1,300.7,36.71q3.7-5.958,7.378-11.929a.454.454,0,0,0,.057-.567" transform="translate(-205.479 -14.294)"/>
        <path id="Trazado_135" data-name="Trazado 135" class="cls-1" d="M262.6,56.791c2.26,0,4.294-.007,6.329,0a1.579,1.579,0,0,1,1.664,1.371,1.538,1.538,0,0,1-1.008,1.8,2.325,2.325,0,0,1-.921.118c-2.871.008-5.742.018-8.613,0-1.875-.012-2.528-1.16-1.568-2.78,2.262-3.817,4.555-7.615,6.823-11.429.23-.386.765-.776.512-1.22-.207-.362-.794-.132-1.208-.138-1.534-.022-3.068,0-4.6-.019-1.179-.014-1.888-.645-1.892-1.637s.7-1.647,1.878-1.653c2.91-.013,5.821.01,8.731-.008a2.123,2.123,0,0,1,1.874,1.013c.453.68.009,1.246-.344,1.831-2.514,4.164-5.009,8.339-7.654,12.752" transform="translate(-176.633 -28.199)"/>
        <path id="Trazado_136" data-name="Trazado 136" class="cls-1" d="M50.143,82.447c0-.745,0-1.489,0-2.234.006-1.555.58-2.341,1.681-2.308s1.608.755,1.612,2.254c0,1.137.049,2.275-.006,3.409a1.182,1.182,0,0,0,.82,1.356,1.587,1.587,0,0,1,.217.089c1.123.6,1.608,1.678,1.117,2.474a2.1,2.1,0,0,1-2.912.418c-2.979-2.04-2.484-.8-2.529-5.457" transform="translate(-34.32 -53.327)"/>
      </g>
    </g>
  </g>
</svg>
