<svg xmlns="http://www.w3.org/2000/svg" xmlns:xlink="http://www.w3.org/1999/xlink" width="289.435" height="162.977" viewBox="0 0 289.435 162.977">
  <defs>
    <style>
      .cls-1 {
        fill: none;
      }

      .cls-2 {
        clip-path: url(#clip-path);
      }

      .cls-3 {
        fill: #fff;
      }
    </style>
    <clipPath id="clip-path">
      <rect id="Rectángulo_6" data-name="Rectángulo 6" class="cls-1" width="289.435" height="162.977"/>
    </clipPath>
  </defs>
  <g id="Grupo_10" data-name="Grupo 10" transform="translate(0 -0.001)">
    <g id="Grupo_9" data-name="Grupo 9" class="cls-2" transform="translate(0 0.001)">
      <path id="Trazado_2" data-name="Trazado 2" class="cls-3" d="M60.6,47.732q0,3.639-4.13,16.91t-4.13,15.884h-.651q0-2.379-4.551-16.7T42.59,47.732H31.629q0,2.566-4.668,16.072T22.3,80.526h-.7q0-2.658-4.082-16.77T13.435,47.732H0q0,1.774,7.395,21.622t7.395,22.694H25.7q0-2.521,3.686-13.435,4.571-13.76,5.784-18.566h.747q1.305,4.992,6.063,18.8,3.826,11.055,3.824,13.2H56.676q0-3.31,7.766-22.484t7.768-21.833Z" transform="translate(0 36.006)"/>
      <path id="Trazado_3" data-name="Trazado 3" class="cls-3" d="M64.011,54.8q9.142,0,9.142,10.73l-19.5.374q1.632-11.1,10.356-11.1m-16.351-.863a26.072,26.072,0,0,0-6.088,17.236,22.818,22.818,0,0,0,6.414,16.28q6.413,6.766,18.45,6.763A47.233,47.233,0,0,0,82.39,91.89l.933-9.049a57.974,57.974,0,0,1-14.88,2.1,14.592,14.592,0,0,1-10.17-3.5,13.727,13.727,0,0,1-4.524-8.77l30.041-.512q.279-3.826.279-6.205,0-8.581-4.8-13.947T64.571,46.642q-10.823,0-16.91,7.3" transform="translate(31.36 35.183)"/>
      <path id="Trazado_4" data-name="Trazado 4" class="cls-3" d="M86.95,54.129a24.347,24.347,0,0,0-6.765,17.1,22.452,22.452,0,0,0,6.461,16.14q6.46,6.718,18.5,6.717,7.276,0,11.523-2.239l.793-8.909a36.863,36.863,0,0,1-10.31,1.865q-7.089,0-10.961-4.386a15.626,15.626,0,0,1-3.874-10.728,15,15,0,0,1,3.267-9.821,10.9,10.9,0,0,1,8.91-3.988A24.977,24.977,0,0,1,114.1,57.65l1.586-9.516a36.548,36.548,0,0,0-10.216-1.307q-11.755,0-18.519,7.3" transform="translate(60.487 35.323)"/>
      <path id="Trazado_5" data-name="Trazado 5" class="cls-3" d="M118.078,81.57a19.512,19.512,0,0,1-3.172-11.358,17.837,17.837,0,0,1,3.1-10.73,9.514,9.514,0,0,1,8.047-4.291,9.64,9.64,0,0,1,8.256,4.595,19.511,19.511,0,0,1,3.172,11.358,17.846,17.846,0,0,1-3.1,10.731,9.516,9.516,0,0,1-8.047,4.291,9.637,9.637,0,0,1-8.256-4.6m-8.07-28.338q-7.276,6.671-7.277,18.473,0,10.96,6.672,17a23,23,0,0,0,16,6.04,24.377,24.377,0,0,0,17.026-6.624q7.231-6.624,7.231-18.379,0-11.008-6.647-17.1a22.777,22.777,0,0,0-15.931-6.086,24.45,24.45,0,0,0-17.073,6.67" transform="translate(77.495 35.123)"/>
      <path id="Trazado_6" data-name="Trazado 6" class="cls-3" d="M145.916,83.307q0-10.916-.7-24.024Q148.2,55.5,154.639,55.5a9.343,9.343,0,0,1,8.117,4.246,17.343,17.343,0,0,1,2.939,10.124A19.985,19.985,0,0,1,162.711,81q-2.987,4.595-9.191,4.595a12.026,12.026,0,0,1-7.6-2.286m-.793-31.861h-.747l-.7-4.01-11.942,1.305q2.424,11.85,2.426,34.427c0,11.661-.925,25.194-1.486,34.12l13.637-4.631c-.218-7.807-.628-14.128-.628-21.747h.56q2.8,3.174,10.261,3.172,10.029,0,15.814-7.649A28.655,28.655,0,0,0,178.1,68.66a23.686,23.686,0,0,0-5.224-15.372q-5.224-6.46-14.18-6.461-8.584,0-13.575,4.619" transform="translate(99.374 35.323)"/>
      <path id="Trazado_7" data-name="Trazado 7" class="cls-3" d="M126.4,67.474l27.44-14.994L123.99,61.616l33.575-37.929L119.518,57.13l9.256-30.054L113.669,54.7,110.592,0l-3.258,54.683-13.991-26.6L101.478,57.1,63.547,23.522,96.989,61.569,65.265,51.476,94.555,67.418,24.82,70.5l7.875.367h65.49c-.019-.216-.049-.43-.058-.649-.318-7.075,6.247-13.1,13.1-13.1,7.345,0,12.786,6,13.1,13.1.009.219-.007.433-.011.649h61.914l2.709-.133Z" transform="translate(18.723 -0.001)"/>
      <path id="Trazado_8" data-name="Trazado 8" class="cls-3" d="M74.683,45.525a12.573,12.573,0,0,1,6.477,2.417l10-32.508Z" transform="translate(56.337 11.642)"/>
      <path id="Trazado_9" data-name="Trazado 9" class="cls-3" d="M79.374,45.273,63.888,16.021l9.063,32.517a13.812,13.812,0,0,1,6.423-3.265" transform="translate(48.194 12.084)"/>
      <path id="Trazado_10" data-name="Trazado 10" class="cls-3" d="M83.252,40.409,47.863,29.365,80.753,47.3a11.9,11.9,0,0,1,2.5-6.888" transform="translate(36.105 22.15)"/>
      <path id="Trazado_11" data-name="Trazado 11" class="cls-3" d="M79.959,39.793a14.179,14.179,0,0,1,2.625,6.344L112.255,29.92Z" transform="translate(60.317 22.569)"/>
      <path id="Trazado_12" data-name="Trazado 12" class="cls-3" d="M82.8,92.449H70.248q.653-9.658.651-22.159a131.079,131.079,0,0,0-1.586-21.736L82.75,47.2q-.608,9.047-.607,23.089,0,11.992.653,22.159" transform="translate(52.286 35.605)"/>
      <path id="Trazado_13" data-name="Trazado 13" class="cls-3" d="M84.74,42.67a7.979,7.979,0,0,1-2.168,5.551A7.767,7.767,0,0,1,76.53,50.6a6.506,6.506,0,0,1-5.107-2.051A7.144,7.144,0,0,1,69.579,43.6a7.813,7.813,0,0,1,2.17-5.505,7.9,7.9,0,0,1,6.088-2.332A6.46,6.46,0,0,1,82.944,37.8a7.113,7.113,0,0,1,1.8,4.875" transform="translate(52.487 26.98)"/>
      <path id="Trazado_14" data-name="Trazado 14" class="cls-3" d="M89.49,77.829h1.747v13.3H89.417V81.167l.091.584-3.274,7.528h-1.3l-3.275-7.344.093-.768v9.959H79.933v-13.3H81.68l3.905,8.781Z" transform="translate(60.297 58.709)"/>
      <path id="Trazado_15" data-name="Trazado 15" class="cls-3" d="M89.795,89.2a3.208,3.208,0,0,1-1.34-1.414,4.992,4.992,0,0,1-.461-2.237V84.007a4.883,4.883,0,0,1,.461-2.209,3.193,3.193,0,0,1,1.34-1.4,4.9,4.9,0,0,1,4.226,0,3.189,3.189,0,0,1,1.339,1.4,4.883,4.883,0,0,1,.461,2.209V85.58A4.906,4.906,0,0,1,95.36,87.8,3.22,3.22,0,0,1,94.021,89.2a4.853,4.853,0,0,1-4.226,0m3.626-1.9a2.531,2.531,0,0,0,.533-1.719V84.007a2.5,2.5,0,0,0-.533-1.71,2.2,2.2,0,0,0-3.028,0,2.5,2.5,0,0,0-.535,1.71V85.58a2.532,2.532,0,0,0,.535,1.719,2.178,2.178,0,0,0,3.028,0" transform="translate(66.377 60.286)"/>
      <path id="Trazado_16" data-name="Trazado 16" class="cls-3" d="M95.314,90.839A2.863,2.863,0,0,1,94.2,89.518a5.132,5.132,0,0,1-.384-2.086V85.339a5.286,5.286,0,0,1,.374-2.095,2.859,2.859,0,0,1,1.093-1.323A3.17,3.17,0,0,1,97,81.469a2.846,2.846,0,0,1,1.542.439,3.248,3.248,0,0,1,1.128,1.235l-.191,1.939a2.263,2.263,0,0,0-.219-1.033,1.519,1.519,0,0,0-.637-.654,2.108,2.108,0,0,0-1.01-.223,1.807,1.807,0,0,0-1.432.575,2.378,2.378,0,0,0-.507,1.619v2.067a2.309,2.309,0,0,0,.507,1.6,1.829,1.829,0,0,0,1.432.563,2.049,2.049,0,0,0,1.01-.233,1.556,1.556,0,0,0,.637-.674,2.335,2.335,0,0,0,.219-1.051l.128,2a2.7,2.7,0,0,1-.928,1.179,2.6,2.6,0,0,1-1.588.475,3.335,3.335,0,0,1-1.779-.453m4.167-13.01h1.867v13.3H99.481Z" transform="translate(70.766 58.709)"/>
      <path id="Trazado_17" data-name="Trazado 17" class="cls-3" d="M100.329,88.959a2.722,2.722,0,0,1-.868-2.209,2.675,2.675,0,0,1,.8-2.112,3.535,3.535,0,0,1,2.405-.705h2.7l.128,1.5h-2.818a1.586,1.586,0,0,0-1.093.325,1.265,1.265,0,0,0-.361.991,1.234,1.234,0,0,0,.481,1.07,2.494,2.494,0,0,0,1.46.347,4.212,4.212,0,0,0,1.595-.228.754.754,0,0,0,.526-.714l.193,1.335a2.2,2.2,0,0,1-.609.632,2.653,2.653,0,0,1-.837.37,4.188,4.188,0,0,1-1.07.125,4.026,4.026,0,0,1-2.626-.728m4.949-5.428a2,2,0,0,0-.5-1.449,1.867,1.867,0,0,0-1.412-.518,3.637,3.637,0,0,0-1.112.174,3.386,3.386,0,0,0-.965.484l-1.363-.932a3.547,3.547,0,0,1,1.423-1.01,5.139,5.139,0,0,1,1.961-.361,4.514,4.514,0,0,1,2.021.416,2.884,2.884,0,0,1,1.281,1.207,3.874,3.874,0,0,1,.439,1.907v6.1h-1.774Z" transform="translate(75.028 60.286)"/>
      <path id="Trazado_18" data-name="Trazado 18" class="cls-3" d="M104.987,81.634h4.747v1.591h-4.747Zm1.007-1.289a2.684,2.684,0,0,1,.581-1.888,2.318,2.318,0,0,1,1.788-.628h1.372V79.6H108.4a.455.455,0,0,0-.4.2.9.9,0,0,0-.137.521v10.8h-1.867Z" transform="translate(79.196 58.709)"/>
      <path id="Trazado_19" data-name="Trazado 19" class="cls-3" d="M108.945,77.829h1.867V79.7h-1.867Zm0,3.805h1.867v9.495h-1.867Z" transform="translate(82.182 58.709)"/>
      <path id="Trazado_20" data-name="Trazado 20" class="cls-3" d="M111.625,80.058h1.867v9.495h-1.867Zm5.761,3.74a2.169,2.169,0,0,0-.523-1.554,1.911,1.911,0,0,0-1.461-.549,1.945,1.945,0,0,0-1.414.484,1.809,1.809,0,0,0-.5,1.363l-.193-1.828a3.4,3.4,0,0,1,1.149-1.328,2.794,2.794,0,0,1,1.568-.467,2.948,2.948,0,0,1,2.391,1.012,4.326,4.326,0,0,1,.847,2.858V89.55h-1.867Z" transform="translate(84.204 60.286)"/>
      <path id="Trazado_21" data-name="Trazado 21" class="cls-3" d="M117.589,77.829h1.867V79.7h-1.867Zm0,3.805h1.867v9.495h-1.867Z" transform="translate(88.703 58.709)"/>
      <path id="Trazado_22" data-name="Trazado 22" class="cls-3" d="M122.135,88.676a.838.838,0,0,0,.151.535.51.51,0,0,0,.425.188h.879v1.775h-1.1a2.078,2.078,0,0,1-1.642-.66,2.722,2.722,0,0,1-.581-1.858V77.829h1.867Z" transform="translate(90.724 58.709)"/>
      <path id="Trazado_23" data-name="Trazado 23" class="cls-3" d="M125,89.2a3.208,3.208,0,0,1-1.34-1.414,4.992,4.992,0,0,1-.461-2.237V84.007a4.883,4.883,0,0,1,.461-2.209A3.193,3.193,0,0,1,125,80.4a4.9,4.9,0,0,1,4.226,0,3.189,3.189,0,0,1,1.339,1.4,4.883,4.883,0,0,1,.461,2.209V85.58a4.906,4.906,0,0,1-.461,2.217,3.22,3.22,0,0,1-1.339,1.405,4.853,4.853,0,0,1-4.226,0m3.628-1.9a2.54,2.54,0,0,0,.533-1.719V84.007a2.5,2.5,0,0,0-.533-1.71,2.2,2.2,0,0,0-3.03,0,2.5,2.5,0,0,0-.535,1.71V85.58A2.532,2.532,0,0,0,125.6,87.3a2.18,2.18,0,0,0,3.03,0" transform="translate(92.938 60.286)"/>
      <path id="Trazado_24" data-name="Trazado 24" class="cls-3" d="M164.249,58.7a5.331,5.331,0,1,1,5.317-5.33,5.333,5.333,0,0,1-5.317,5.33m-.012-9.459a4.131,4.131,0,1,0,4.074,4.13,4.082,4.082,0,0,0-4.074-4.13m1.282,7.226a2.576,2.576,0,0,1-.181-1.13c-.028-.544-.056-1.06-.656-1.242a2.319,2.319,0,0,0-.433-.068h-1.074v2.44h-1.214v-6.1h2.623c1.075,0,2.095.4,2.095,1.66a1.4,1.4,0,0,1-1.132,1.479v.028c.837.239.977.726,1.019,1.521a3.427,3.427,0,0,0,.195,1.409Zm-.139-4.631c-.154-.446-.572-.475-.977-.475h-1.228v1.689h1.172c.67,0,1.089-.225,1.089-.977a.727.727,0,0,0-.056-.237" transform="translate(119.869 36.236)"/>
      <path id="Trazado_25" data-name="Trazado 25" class="cls-3" d="M52.328,88.365a8.334,8.334,0,0,1,1.53-.123,2.527,2.527,0,0,1,1.786.511,1.539,1.539,0,0,1,.482,1.175,1.621,1.621,0,0,1-1.17,1.572v.028a1.536,1.536,0,0,1,.9,1.249,9.692,9.692,0,0,0,.472,1.7l-.826,0a8.013,8.013,0,0,1-.407-1.477c-.181-.853-.509-1.175-1.233-1.205l-.751,0-.009,2.677-.8,0Zm.788,2.817.816,0c.853,0,1.395-.461,1.4-1.168,0-.8-.574-1.147-1.416-1.16a3.206,3.206,0,0,0-.789.072Z" transform="translate(39.458 66.564)"/>
      <path id="Trazado_26" data-name="Trazado 26" class="cls-3" d="M55.561,91.674a1.423,1.423,0,0,0,1.518,1.546,2.9,2.9,0,0,0,1.228-.226l.137.579a3.625,3.625,0,0,1-1.477.27A2.061,2.061,0,0,1,54.793,91.6a2.152,2.152,0,0,1,2.089-2.384,1.881,1.881,0,0,1,1.826,2.1,2.953,2.953,0,0,1-.03.374Zm2.368-.57a1.148,1.148,0,0,0-1.114-1.314A1.335,1.335,0,0,0,55.574,91.1Z" transform="translate(41.333 67.297)"/>
      <path id="Trazado_27" data-name="Trazado 27" class="cls-3" d="M61.436,89.33c-.019.321-.039.677-.04,1.218l-.009,2.577a2.55,2.55,0,0,1-.64,2.025,2.35,2.35,0,0,1-1.614.525,2.879,2.879,0,0,1-1.475-.37l.2-.614a2.508,2.508,0,0,0,1.3.353c.828,0,1.433-.426,1.439-1.544V93H60.58a1.582,1.582,0,0,1-1.414.739,1.983,1.983,0,0,1-1.881-2.17,2.128,2.128,0,0,1,2.005-2.349A1.472,1.472,0,0,1,60.673,90h.018l.042-.67ZM60.6,91.077a1.2,1.2,0,0,0-.046-.367,1.162,1.162,0,0,0-1.123-.856c-.774,0-1.325.647-1.328,1.674,0,.87.435,1.6,1.305,1.6a1.181,1.181,0,0,0,1.121-.823,1.353,1.353,0,0,0,.065-.43Z" transform="translate(43.213 67.303)"/>
      <path id="Trazado_28" data-name="Trazado 28" class="cls-3" d="M61.211,88.793a.5.5,0,0,1-1,0,.49.49,0,0,1,.505-.5.477.477,0,0,1,.493.505m-.918,5.681.016-4.437.805,0L61.1,94.476Z" transform="translate(45.421 66.599)"/>
      <path id="Trazado_29" data-name="Trazado 29" class="cls-3" d="M61.383,92.941a2.1,2.1,0,0,0,1.061.325c.588,0,.863-.289.865-.656,0-.386-.226-.6-.823-.819-.8-.288-1.17-.728-1.168-1.26a1.367,1.367,0,0,1,1.535-1.3,2.218,2.218,0,0,1,1.089.279l-.2.586a1.7,1.7,0,0,0-.907-.26c-.477,0-.742.272-.744.6,0,.367.263.533.84.754.768.3,1.163.682,1.16,1.342,0,.781-.609,1.328-1.663,1.325a2.531,2.531,0,0,1-1.246-.307Z" transform="translate(46.15 67.312)"/>
      <path id="Trazado_30" data-name="Trazado 30" class="cls-3" d="M64.5,88.571l-.005,1.274,1.156.005,0,.614-1.156,0-.009,2.391c0,.551.154.863.6.865a1.887,1.887,0,0,0,.468-.053l.033.6a1.973,1.973,0,0,1-.716.107,1.121,1.121,0,0,1-.87-.34,1.652,1.652,0,0,1-.307-1.158l.007-2.419-.686,0,0-.614.688,0,0-1.065Z" transform="translate(47.535 66.812)"/>
      <path id="Trazado_31" data-name="Trazado 31" class="cls-3" d="M64.919,90.726c0-.523-.007-.972-.033-1.384l.707,0,.025.872h.037a1.331,1.331,0,0,1,1.232-.968.891.891,0,0,1,.228.028l0,.761a1.256,1.256,0,0,0-.275-.028,1.131,1.131,0,0,0-1.084,1.032,2.356,2.356,0,0,0-.039.375l-.007,2.367-.8,0Z" transform="translate(48.946 67.322)"/>
      <path id="Trazado_32" data-name="Trazado 32" class="cls-3" d="M70.64,91.543a2.167,2.167,0,0,1-2.217,2.347A2.109,2.109,0,0,1,66.3,91.6a2.166,2.166,0,0,1,2.207-2.349,2.1,2.1,0,0,1,2.13,2.291m-3.521.033c0,.972.553,1.707,1.342,1.709.77,0,1.349-.719,1.353-1.718,0-.753-.368-1.707-1.323-1.71s-1.37.875-1.372,1.719" transform="translate(50.015 67.326)"/>
      <path id="Trazado_33" data-name="Trazado 33" class="cls-3" d="M70.245,93.574a2.825,2.825,0,0,0,1.428.409c.816,0,1.295-.426,1.3-1.051,0-.577-.326-.907-1.16-1.232-1.007-.361-1.628-.886-1.626-1.758a1.779,1.779,0,0,1,2-1.67,2.816,2.816,0,0,1,1.367.309l-.223.649a2.463,2.463,0,0,0-1.172-.3c-.844,0-1.167.5-1.168.923,0,.577.374.863,1.225,1.2,1.044.407,1.574.912,1.57,1.819,0,.954-.712,1.777-2.168,1.772a3.184,3.184,0,0,1-1.577-.4Z" transform="translate(52.834 66.587)"/>
      <path id="Trazado_34" data-name="Trazado 34" class="cls-3" d="M75.258,93.814l-.063-.558h-.028a1.655,1.655,0,0,1-1.358.654,1.265,1.265,0,0,1-1.353-1.279c0-1.072.96-1.656,2.674-1.642V90.9a.915.915,0,0,0-1.005-1.03,2.2,2.2,0,0,0-1.156.326l-.181-.532a2.75,2.75,0,0,1,1.458-.391c1.356.005,1.684.933,1.681,1.823l-.005,1.658a6.365,6.365,0,0,0,.068,1.065Zm-.112-2.265c-.879-.021-1.881.132-1.882.993a.715.715,0,0,0,.758.774,1.107,1.107,0,0,0,1.075-.739.845.845,0,0,0,.047-.258Z" transform="translate(54.657 67.341)"/>
      <path id="Trazado_35" data-name="Trazado 35" class="cls-3" d="M75.065,90.577c0-.458-.007-.835-.033-1.2l.716,0,.044.735h.018a1.636,1.636,0,0,1,1.47-.83c.614,0,1.567.372,1.561,1.895l-.009,2.649-.807,0,.009-2.558c0-.714-.261-1.312-1.023-1.314a1.182,1.182,0,0,0-1.14,1.2l-.009,2.668-.807,0Z" transform="translate(56.6 67.349)"/>
      <path id="Trazado_36" data-name="Trazado 36" class="cls-3" d="M78.766,88.853a.5.5,0,0,1-1,0,.49.49,0,0,1,.505-.5.477.477,0,0,1,.493.505m-.918,5.681.016-4.437.805,0-.014,4.437Z" transform="translate(58.664 66.644)"/>
      <path id="Trazado_37" data-name="Trazado 37" class="cls-3" d="M80.114,88.624,80.109,89.9l1.154.005v.614l-1.158,0L80.1,92.9c0,.551.153.861.6.865a1.775,1.775,0,0,0,.467-.054l.035.605a1.979,1.979,0,0,1-.716.107,1.116,1.116,0,0,1-.87-.34,1.643,1.643,0,0,1-.307-1.158l.007-2.419-.686,0,0-.614.686,0,0-1.065Z" transform="translate(59.316 66.852)"/>
      <path id="Trazado_38" data-name="Trazado 38" class="cls-3" d="M83.12,93.841l-.061-.558H83.03a1.659,1.659,0,0,1-1.36.654,1.263,1.263,0,0,1-1.351-1.279c0-1.072.958-1.656,2.672-1.642l0-.091a.916.916,0,0,0-1.005-1.03,2.193,2.193,0,0,0-1.156.326l-.182-.532a2.746,2.746,0,0,1,1.46-.391c1.356.005,1.682.933,1.681,1.823l-.007,1.658a6.543,6.543,0,0,0,.07,1.065Zm-.111-2.265c-.881-.021-1.881.132-1.882.993a.712.712,0,0,0,.758.772,1.1,1.1,0,0,0,1.074-.737.844.844,0,0,0,.047-.258Z" transform="translate(60.589 67.361)"/>
      <path id="Trazado_39" data-name="Trazado 39" class="cls-3" d="M82.928,90.787c0-.523-.005-.972-.032-1.384l.705,0,.025.872h.037a1.333,1.333,0,0,1,1.232-.968.993.993,0,0,1,.23.028l0,.761a1.25,1.25,0,0,0-.274-.028A1.133,1.133,0,0,0,83.761,91.1a2.142,2.142,0,0,0-.037.375l-.009,2.365-.8,0Z" transform="translate(62.532 67.368)"/>
      <path id="Trazado_40" data-name="Trazado 40" class="cls-3" d="M85.444,88.876a.5.5,0,0,1-1,0,.49.49,0,0,1,.505-.5.477.477,0,0,1,.493.505m-.918,5.681.016-4.437.807,0-.016,4.437Z" transform="translate(63.701 66.661)"/>
      <path id="Trazado_41" data-name="Trazado 41" class="cls-3" d="M89.747,91.608a2.167,2.167,0,0,1-2.217,2.347,2.109,2.109,0,0,1-2.119-2.289,2.168,2.168,0,0,1,2.209-2.349,2.1,2.1,0,0,1,2.128,2.291m-3.521.033c0,.972.553,1.707,1.342,1.709.77,0,1.349-.719,1.354-1.717,0-.753-.37-1.707-1.325-1.71s-1.368.875-1.372,1.719" transform="translate(64.429 67.375)"/>
      <path id="Trazado_42" data-name="Trazado 42" class="cls-3" d="M89.325,94.57l.021-6.179.872,0,1.968,3.133a17.517,17.517,0,0,1,1.1,2.012l.019-.009c-.07-.826-.088-1.577-.082-2.54l.009-2.584.751,0-.021,6.179-.807,0-1.951-3.14a19.646,19.646,0,0,1-1.147-2.068l-.028.009c.044.781.06,1.523.056,2.549l-.011,2.64Z" transform="translate(67.382 66.676)"/>
      <path id="Trazado_43" data-name="Trazado 43" class="cls-3" d="M96.775,91.632a2.168,2.168,0,0,1-2.217,2.347,2.109,2.109,0,0,1-2.119-2.289,2.166,2.166,0,0,1,2.207-2.349,2.1,2.1,0,0,1,2.13,2.291m-3.521.033c0,.972.553,1.707,1.342,1.709.768,0,1.349-.719,1.353-1.718,0-.753-.37-1.707-1.323-1.71s-1.37.875-1.372,1.719" transform="translate(69.73 67.393)"/>
      <path id="Trazado_44" data-name="Trazado 44" class="cls-3" d="M95.057,91.908a.543.543,0,0,1,.553-.575.578.578,0,1,1-.553.575" transform="translate(71.706 68.896)"/>
      <path id="Trazado_45" data-name="Trazado 45" class="cls-3" d="M98.487,89.3h-.018l-1.039.556-.154-.616,1.305-.691.688,0-.021,5.958-.779,0Z" transform="translate(73.38 66.794)"/>
      <path id="Trazado_46" data-name="Trazado 46" class="cls-3" d="M99.474,93.038a1.7,1.7,0,0,1,1.188-1.591l-.009-.026a1.476,1.476,0,0,1-.94-1.342,1.671,1.671,0,0,1,1.849-1.581,1.541,1.541,0,0,1,1.728,1.474,1.518,1.518,0,0,1-.986,1.389l0,.028a1.653,1.653,0,0,1,1.2,1.544,1.836,1.836,0,0,1-2.032,1.726c-1.247-.005-2-.751-1.993-1.621m3.209-.025c0-.725-.5-1.075-1.307-1.307a1.294,1.294,0,0,0-1.075,1.225,1.1,1.1,0,0,0,1.186,1.14,1.077,1.077,0,0,0,1.2-1.058m-2.209-2.988c0,.6.446.918,1.133,1.1a1.172,1.172,0,0,0,.91-1.079.926.926,0,0,0-1.005-.975.948.948,0,0,0-1.039.951" transform="translate(75.038 66.757)"/>
      <path id="Trazado_47" data-name="Trazado 47" class="cls-3" d="M105.649,89.25l-2.274-.007-.233,1.53a3.079,3.079,0,0,1,.486-.035,2.526,2.526,0,0,1,1.282.325,1.7,1.7,0,0,1,.847,1.533,2.068,2.068,0,0,1-2.226,2.028,2.9,2.9,0,0,1-1.484-.372l.205-.612a2.662,2.662,0,0,0,1.272.333,1.315,1.315,0,0,0,1.418-1.286c-.007-.772-.519-1.323-1.71-1.328a6.06,6.06,0,0,0-.825.063l.395-2.86,2.849.009Z" transform="translate(76.979 66.805)"/>
      <path id="Trazado_48" data-name="Trazado 48" class="cls-3" d="M110.062,91.926c-.042-.861-.095-1.9-.082-2.668h-.028c-.214.723-.472,1.493-.786,2.344l-1.1,2.995-.6,0-.989-2.946c-.289-.874-.535-1.672-.707-2.405h-.019c-.019.77-.07,1.805-.126,2.732l-.175,2.649-.76,0,.451-6.177,1.018,0,1.044,2.993c.254.761.463,1.44.618,2.082h.026c.16-.623.381-1.3.658-2.079l1.11-2.984,1.018,0,.365,6.179-.779,0Z" transform="translate(78.966 66.716)"/>
      <path id="Trazado_49" data-name="Trazado 49" class="cls-3" d="M108.688,94.582l0-.495.635-.612c1.526-1.444,2.216-2.21,2.228-3.109a1.064,1.064,0,0,0-1.179-1.168,2.031,2.031,0,0,0-1.267.5l-.254-.57a2.607,2.607,0,0,1,1.689-.6,1.675,1.675,0,0,1,1.818,1.739c0,1.1-.8,1.986-2.065,3.191l-.477.439v.019l2.677.009,0,.67Z" transform="translate(81.988 66.78)"/>
      <path id="Trazado_50" data-name="Trazado 50" class="cls-3" d="M115.245,91.561c-.007,2.024-.763,3.142-2.082,3.137-1.165,0-1.949-1.1-1.961-3.068.007-2,.874-3.1,2.082-3.091,1.256,0,1.967,1.125,1.961,3.023m-3.237.081c-.005,1.549.468,2.43,1.2,2.433.826,0,1.223-.958,1.228-2.481.005-1.467-.368-2.43-1.2-2.433-.707,0-1.223.858-1.228,2.481" transform="translate(83.884 66.787)"/>
      <path id="Trazado_51" data-name="Trazado 51" class="cls-3" d="M113.792,94.6l0-.495.635-.612c1.526-1.444,2.216-2.21,2.228-3.11a1.063,1.063,0,0,0-1.179-1.167,2.031,2.031,0,0,0-1.267.5l-.254-.57a2.608,2.608,0,0,1,1.689-.6,1.675,1.675,0,0,1,1.818,1.739c0,1.1-.8,1.986-2.065,3.191l-.477.439v.019l2.677.009,0,.67Z" transform="translate(85.838 66.794)"/>
      <path id="Trazado_52" data-name="Trazado 52" class="cls-3" d="M120.344,91.578c-.007,2.026-.763,3.142-2.084,3.137-1.163,0-1.947-1.1-1.96-3.068.007-2,.872-3.1,2.082-3.091,1.256,0,1.967,1.126,1.961,3.023m-3.237.081c-.005,1.549.468,2.432,1.2,2.433.825,0,1.223-.958,1.228-2.481.005-1.467-.368-2.43-1.2-2.433-.705,0-1.223.858-1.228,2.481" transform="translate(87.73 66.8)"/>
      <path id="Trazado_53" data-name="Trazado 53" class="cls-3" d="M120.068,93.744a2.831,2.831,0,0,0,1.428.409c.816,0,1.295-.426,1.3-1.051,0-.577-.326-.907-1.16-1.232-1.007-.361-1.628-.886-1.626-1.756a1.78,1.78,0,0,1,2.005-1.672,2.813,2.813,0,0,1,1.365.309l-.223.649a2.457,2.457,0,0,0-1.172-.3c-.844,0-1.167.5-1.167.923,0,.577.372.863,1.223,1.2,1.044.407,1.574.912,1.57,1.819,0,.954-.712,1.777-2.168,1.772a3.172,3.172,0,0,1-1.575-.4Z" transform="translate(90.419 66.715)"/>
      <path id="Trazado_54" data-name="Trazado 54" class="cls-3" d="M122.519,93.751a2.831,2.831,0,0,0,1.428.409c.816,0,1.295-.426,1.3-1.051,0-.577-.326-.907-1.16-1.232-1.007-.361-1.628-.886-1.626-1.756a1.778,1.778,0,0,1,2.005-1.67,2.8,2.8,0,0,1,1.365.307l-.223.649a2.461,2.461,0,0,0-1.172-.3c-.844,0-1.167.5-1.168.921,0,.577.374.863,1.225,1.2,1.044.407,1.574.912,1.57,1.819,0,.954-.711,1.777-2.168,1.772a3.172,3.172,0,0,1-1.575-.4Z" transform="translate(92.268 66.722)"/>
      <path id="Trazado_55" data-name="Trazado 55" class="cls-3" d="M126.149,92.751l-.647,1.94-.826,0,2.121-6.172.961,0,2.088,6.186-.853,0-.653-1.946Zm2.028-.618-.6-1.781c-.135-.4-.225-.77-.316-1.128h-.019c-.093.367-.193.742-.314,1.118l-.612,1.784Z" transform="translate(94.048 66.771)"/>
      <path id="Trazado_56" data-name="Trazado 56" class="cls-3" d="M129.815,88.529l-.021,6.179-.8,0,.021-6.179Z" transform="translate(97.308 66.779)"/>
      <path id="Trazado_57" data-name="Trazado 57" class="cls-3" d="M131.751,94.715l-2-6.186.863,0,.951,3.047c.263.833.489,1.588.653,2.31l.018,0c.177-.714.437-1.493.714-2.3l1.056-3.049.853,0-2.232,6.172Z" transform="translate(97.88 66.781)"/>
    </g>
  </g>
</svg>
