<svg id="Grupo_34" data-name="Grupo 34" xmlns="http://www.w3.org/2000/svg" xmlns:xlink="http://www.w3.org/1999/xlink" width="455.609" height="256.548" viewBox="0 0 455.609 256.548">
  <defs>
    <style>
      .cls-1 {
        fill: none;
      }

      .cls-2 {
        clip-path: url(#clip-path);
      }

      .cls-3 {
        fill: #f15a24;
      }

      .cls-4 {
        fill: #ee5523;
      }

      .cls-5 {
        fill: #eead1f;
      }

      .cls-6 {
        fill: #ee9521;
      }

      .cls-7 {
        fill: #f7941d;
      }

      .cls-8 {
        fill: #fff;
      }
    </style>
    <clipPath id="clip-path">
      <rect id="Rect치ngulo_44" data-name="Rect치ngulo 44" class="cls-1" width="455.609" height="256.548"/>
    </clipPath>
  </defs>
  <g id="Grupo_33" data-name="Grupo 33" class="cls-2">
    <path id="Trazado_73" data-name="Trazado 73" class="cls-3" d="M95.386,131.814q0,5.727-6.5,26.619t-6.5,25H81.361q0-3.744-7.161-26.286t-7.159-25.335H49.786q0,4.038-7.345,25.3T35.1,183.435H34q0-4.184-6.425-26.4t-6.426-25.224H0q0,2.79,11.637,34.035t11.641,35.725H40.459q0-3.968,5.8-21.149,7.2-21.662,9.106-29.226h1.175q2.053,7.86,9.545,29.593,6.02,17.4,6.022,20.782H89.217q0-5.213,12.226-35.393t12.227-34.367Z"/>
    <path id="Trazado_74" data-name="Trazado 74" class="cls-3" d="M150.128,141.655q14.393,0,14.392,16.889l-30.694.587q2.568-17.475,16.3-17.476M124.391,140.3a41.041,41.041,0,0,0-9.583,27.133,35.907,35.907,0,0,0,10.1,25.626Q135,203.705,153.947,203.7q14.978,0,25.112-3.671l1.468-14.245a91.212,91.212,0,0,1-23.423,3.3q-9.914,0-16.009-5.506a21.6,21.6,0,0,1-7.123-13.806l47.289-.807q.441-6.021.44-9.767,0-13.509-7.562-21.955t-23.13-8.445q-17.037,0-26.618,11.492"/>
    <path id="Trazado_75" data-name="Trazado 75" class="cls-3" d="M232.086,140.81a38.324,38.324,0,0,0-10.648,26.911,35.344,35.344,0,0,0,10.171,25.408Q241.776,203.7,260.724,203.7q11.454,0,18.137-3.526l1.248-14.023q-9.695,2.937-16.228,2.937-11.163,0-17.256-6.9a24.6,24.6,0,0,1-6.1-16.889,23.6,23.6,0,0,1,5.142-15.457q5.136-6.277,14.025-6.278a39.284,39.284,0,0,1,15.125,2.79l2.5-14.98a57.606,57.606,0,0,0-16.081-2.056q-18.506,0-29.152,11.493"/>
    <path id="Trazado_76" data-name="Trazado 76" class="cls-3" d="M307.858,183.693q-4.994-7.231-4.993-17.88,0-10.136,4.883-16.889t12.665-6.756q8,0,13,7.233t4.993,17.88q0,10.134-4.882,16.89t-12.666,6.755q-8,0-13-7.233m-12.7-44.609q-11.454,10.5-11.455,29.079,0,17.256,10.5,26.764a36.214,36.214,0,0,0,25.187,9.51,38.376,38.376,0,0,0,26.8-10.428q11.381-10.425,11.382-28.93,0-17.329-10.464-26.915a35.854,35.854,0,0,0-25.078-9.581,38.492,38.492,0,0,0-26.874,10.5"/>
    <path id="Trazado_77" data-name="Trazado 77" class="cls-3" d="M386.119,186.739q0-17.18-1.1-37.815,4.7-5.95,14.833-5.949a14.706,14.706,0,0,1,12.777,6.683,27.3,27.3,0,0,1,4.626,15.935q0,10.278-4.7,17.513t-14.466,7.233q-7.342,0-11.97-3.6m-1.248-50.152H383.7l-1.1-6.314-18.8,2.055q3.818,18.652,3.819,54.192c0,18.357-1.456,39.66-2.338,53.712l21.465-7.292c-.343-12.288-.99-22.237-.99-34.231h.881q4.407,4.993,16.154,4.993,15.787,0,24.892-12.041a45.1,45.1,0,0,0,9.106-27.978,37.3,37.3,0,0,0-8.223-24.2q-8.226-10.169-22.324-10.171-13.511,0-21.368,7.271"/>
    <path id="Trazado_78" data-name="Trazado 78" class="cls-4" d="M228.447,106.212l43.194-23.6L224.647,96.992,277.5,37.286,217.608,89.929l14.571-47.308L208.4,86.1,203.556,0l-5.127,86.078L176.4,44.2l12.806,45.68L129.5,37.026l52.642,59.892L132.207,81.03l46.106,25.094L68.54,110.969l12.4.58H184.027c-.031-.342-.077-.679-.092-1.024-.5-11.137,9.835-20.624,20.622-20.624,11.563,0,20.125,9.45,20.626,20.624.015.345-.01.682-.016,1.024h97.461l4.262-.211Z"/>
    <path id="Trazado_79" data-name="Trazado 79" class="cls-5" d="M206.242,89.987a19.8,19.8,0,0,1,10.194,3.805l15.742-51.173Z"/>
    <path id="Trazado_80" data-name="Trazado 80" class="cls-5" d="M200.807,90.29,176.43,44.245,190.7,95.43a21.713,21.713,0,0,1,10.11-5.14"/>
    <path id="Trazado_81" data-name="Trazado 81" class="cls-6" d="M187.883,98.478,132.176,81.093l51.776,28.227a18.724,18.724,0,0,1,3.931-10.842"/>
    <path id="Trazado_82" data-name="Trazado 82" class="cls-6" d="M220.811,98.167a22.3,22.3,0,0,1,4.13,9.985l46.707-25.528Z"/>
    <path id="Trazado_83" data-name="Trazado 83" class="cls-3" d="M212.635,201.573H192.883q1.029-15.2,1.027-34.88a206.516,206.516,0,0,0-2.5-34.218l21.148-2.129q-.955,14.244-.955,36.347,0,18.875,1.028,34.88"/>
    <path id="Trazado_84" data-name="Trazado 84" class="cls-3" d="M216.014,109.638a12.559,12.559,0,0,1-3.414,8.737q-3.417,3.747-9.51,3.746a10.248,10.248,0,0,1-8.04-3.23,11.234,11.234,0,0,1-2.9-7.784,12.309,12.309,0,0,1,3.414-8.666q3.414-3.669,9.582-3.671,5.213,0,8.041,3.195a11.185,11.185,0,0,1,2.827,7.673"/>
    <path id="Trazado_85" data-name="Trazado 85" class="cls-7" d="M235.784,214.929h2.75v20.933h-2.866V220.184l.144.921-5.154,11.848h-2.044l-5.154-11.56.144-1.209v15.678h-2.865V214.929h2.75l6.147,13.821Z"/>
    <path id="Trazado_86" data-name="Trazado 86" class="cls-7" d="M245.834,235.315a5.036,5.036,0,0,1-2.11-2.224A7.844,7.844,0,0,1,243,229.57v-2.433a7.681,7.681,0,0,1,.726-3.477,5.007,5.007,0,0,1,2.11-2.2,7.7,7.7,0,0,1,6.651,0,5.014,5.014,0,0,1,2.108,2.2,7.668,7.668,0,0,1,.727,3.477v2.476a7.7,7.7,0,0,1-.727,3.491,5.054,5.054,0,0,1-2.108,2.211,7.638,7.638,0,0,1-6.651,0m5.708-2.995a3.98,3.98,0,0,0,.841-2.707v-2.476a3.919,3.919,0,0,0-.841-2.692,3.464,3.464,0,0,0-4.766,0,3.919,3.919,0,0,0-.842,2.692v2.476a3.98,3.98,0,0,0,.842,2.707,3.427,3.427,0,0,0,4.766,0"/>
    <path id="Trazado_87" data-name="Trazado 87" class="cls-7" d="M261.433,235.408a4.488,4.488,0,0,1-1.764-2.08,8.1,8.1,0,0,1-.6-3.283V226.75a8.284,8.284,0,0,1,.59-3.3,4.471,4.471,0,0,1,1.72-2.081,4.975,4.975,0,0,1,2.714-.712,4.481,4.481,0,0,1,2.426.689,5.1,5.1,0,0,1,1.777,1.945l-.3,3.052a3.546,3.546,0,0,0-.346-1.627,2.364,2.364,0,0,0-1-1.03,3.311,3.311,0,0,0-1.589-.352,2.846,2.846,0,0,0-2.254.906,3.736,3.736,0,0,0-.8,2.55v3.252a3.625,3.625,0,0,0,.8,2.512,2.878,2.878,0,0,0,2.254.887,3.21,3.21,0,0,0,1.589-.367,2.438,2.438,0,0,0,1-1.059,3.672,3.672,0,0,0,.346-1.655l.2,3.152a4.245,4.245,0,0,1-1.46,1.857,4.094,4.094,0,0,1-2.5.749,5.236,5.236,0,0,1-2.8-.713m6.558-20.478h2.937v20.933h-2.937Z"/>
    <path id="Trazado_88" data-name="Trazado 88" class="cls-7" d="M276.038,234.933a4.276,4.276,0,0,1-1.367-3.476,4.208,4.208,0,0,1,1.252-3.325,5.568,5.568,0,0,1,3.787-1.11h4.246l.2,2.362h-4.434A2.5,2.5,0,0,0,278,229.9a1.993,1.993,0,0,0-.569,1.562,1.941,1.941,0,0,0,.756,1.684,3.919,3.919,0,0,0,2.3.547,6.638,6.638,0,0,0,2.512-.359,1.187,1.187,0,0,0,.828-1.124l.3,2.1a3.483,3.483,0,0,1-.958.994,4.184,4.184,0,0,1-1.318.582,6.644,6.644,0,0,1-1.683.195,6.322,6.322,0,0,1-4.133-1.146m7.789-8.544a3.156,3.156,0,0,0-.784-2.282,2.949,2.949,0,0,0-2.225-.813,5.708,5.708,0,0,0-1.75.274,5.237,5.237,0,0,0-1.518.762l-2.145-1.468a5.6,5.6,0,0,1,2.239-1.591,8.076,8.076,0,0,1,3.088-.569,7.1,7.1,0,0,1,3.181.655,4.541,4.541,0,0,1,2.016,1.9,6.09,6.09,0,0,1,.691,3v9.6h-2.793Z"/>
    <path id="Trazado_89" data-name="Trazado 89" class="cls-7" d="M289.931,220.918H297.4v2.505h-7.471Zm1.584-2.029a4.237,4.237,0,0,1,.915-2.973,3.657,3.657,0,0,1,2.814-.986H297.4v2.793h-2.1a.715.715,0,0,0-.633.316,1.413,1.413,0,0,0-.217.82v17h-2.937Z"/>
    <path id="Trazado_90" data-name="Trazado 90" class="cls-7" d="M300.858,214.93H303.8v2.937h-2.937Zm0,5.988H303.8v14.944h-2.937Z"/>
    <path id="Trazado_91" data-name="Trazado 91" class="cls-7" d="M308.259,220.919H311.2v14.944h-2.937Zm9.07,5.888a3.414,3.414,0,0,0-.822-2.447,3.019,3.019,0,0,0-2.3-.864,3.053,3.053,0,0,0-2.224.763,2.845,2.845,0,0,0-.785,2.145l-.3-2.879a5.335,5.335,0,0,1,1.807-2.089,4.409,4.409,0,0,1,2.469-.734,4.635,4.635,0,0,1,3.764,1.592,6.808,6.808,0,0,1,1.333,4.5v9.07h-2.937Z"/>
    <path id="Trazado_92" data-name="Trazado 92" class="cls-7" d="M324.73,214.93h2.937v2.937H324.73Zm0,5.988h2.937v14.944H324.73Z"/>
    <path id="Trazado_93" data-name="Trazado 93" class="cls-7" d="M335.067,232a1.305,1.305,0,0,0,.238.842.806.806,0,0,0,.668.3h1.383v2.793h-1.729a3.265,3.265,0,0,1-2.584-1.037,4.277,4.277,0,0,1-.913-2.924V214.929h2.937Z"/>
    <path id="Trazado_94" data-name="Trazado 94" class="cls-7" d="M343.071,235.315a5.036,5.036,0,0,1-2.11-2.224,7.844,7.844,0,0,1-.726-3.521v-2.433a7.681,7.681,0,0,1,.726-3.477,5.007,5.007,0,0,1,2.11-2.2,7.7,7.7,0,0,1,6.651,0,5.008,5.008,0,0,1,2.108,2.2,7.668,7.668,0,0,1,.727,3.477v2.476a7.7,7.7,0,0,1-.727,3.491,5.048,5.048,0,0,1-2.108,2.211,7.638,7.638,0,0,1-6.651,0m5.708-2.995a3.98,3.98,0,0,0,.842-2.707v-2.476a3.919,3.919,0,0,0-.842-2.692,3.464,3.464,0,0,0-4.766,0,3.929,3.929,0,0,0-.842,2.692v2.476a3.99,3.99,0,0,0,.842,2.707,3.427,3.427,0,0,0,4.766,0"/>
    <path id="Trazado_95" data-name="Trazado 95" class="cls-3" d="M447.24,149.44a8.391,8.391,0,1,1,8.369-8.391,8.394,8.394,0,0,1-8.369,8.391m-.021-14.893a6.5,6.5,0,1,0,6.414,6.5,6.426,6.426,0,0,0-6.414-6.5m2.019,11.378a4.056,4.056,0,0,1-.285-1.779c-.043-.857-.088-1.67-1.031-1.955a3.684,3.684,0,0,0-.682-.11h-1.691v3.844h-1.912v-9.6h4.131c1.69,0,3.295.637,3.295,2.615a2.2,2.2,0,0,1-1.78,2.328v.043c1.318.374,1.538,1.142,1.6,2.4a5.4,5.4,0,0,0,.307,2.218Zm-.218-7.292c-.242-.7-.9-.747-1.538-.747h-1.933v2.658h1.844c1.055,0,1.715-.353,1.715-1.538a1.151,1.151,0,0,0-.088-.373"/>
    <path id="Trazado_96" data-name="Trazado 96" d="M144.482,243.88a13.048,13.048,0,0,1,2.411-.2,3.981,3.981,0,0,1,2.811.8,2.42,2.42,0,0,1,.758,1.85,2.554,2.554,0,0,1-1.84,2.476v.042a2.425,2.425,0,0,1,1.421,1.968,15.484,15.484,0,0,0,.742,2.673l-1.3-.005a12.564,12.564,0,0,1-.642-2.325c-.284-1.344-.8-1.85-1.941-1.9l-1.183,0-.015,4.214-1.255,0Zm1.241,4.434,1.284,0c1.342.005,2.2-.728,2.2-1.839.005-1.256-.9-1.807-2.23-1.827a5.206,5.206,0,0,0-1.241.112Z"/>
    <path id="Trazado_97" data-name="Trazado 97" d="M152.526,250.242a2.238,2.238,0,0,0,2.387,2.433,4.584,4.584,0,0,0,1.935-.355l.213.91a5.673,5.673,0,0,1-2.325.425,3.244,3.244,0,0,1-3.422-3.534c.007-2.106,1.254-3.761,3.288-3.754,2.281.008,2.88,2.016,2.876,3.3a4.729,4.729,0,0,1-.046.591Zm3.726-.9a1.808,1.808,0,0,0-1.754-2.069,2.1,2.1,0,0,0-1.954,2.057Z"/>
    <path id="Trazado_98" data-name="Trazado 98" d="M164.732,246.561c-.031.5-.062,1.067-.065,1.918l-.013,4.055c-.006,1.6-.326,2.582-1.007,3.186a3.694,3.694,0,0,1-2.542.828,4.5,4.5,0,0,1-2.322-.585L159.1,255a3.93,3.93,0,0,0,2.047.556c1.3,0,2.254-.67,2.26-2.431l0-.78h-.029a2.489,2.489,0,0,1-2.226,1.162,3.122,3.122,0,0,1-2.961-3.416c.008-2.366,1.557-3.7,3.158-3.7a2.321,2.321,0,0,1,2.175,1.221h.029l.061-1.054Zm-1.323,2.751a1.8,1.8,0,0,0-.07-.577,1.829,1.829,0,0,0-1.771-1.348c-1.212,0-2.081,1.018-2.086,2.634,0,1.371.684,2.513,2.055,2.518a1.858,1.858,0,0,0,1.765-1.293,2.243,2.243,0,0,0,.1-.679Z"/>
    <path id="Trazado_99" data-name="Trazado 99" d="M167.855,244.608a.787.787,0,0,1-1.573-.005.773.773,0,0,1,.8-.79.753.753,0,0,1,.777.795m-1.445,8.943.024-6.984,1.269,0-.023,6.984Z"/>
    <path id="Trazado_100" data-name="Trazado 100" d="M169.271,252.261a3.311,3.311,0,0,0,1.672.511c.924,0,1.358-.457,1.36-1.034,0-.606-.357-.939-1.294-1.289-1.254-.452-1.843-1.146-1.84-1.983a2.154,2.154,0,0,1,2.416-2.042,3.5,3.5,0,0,1,1.716.44l-.321.923a2.7,2.7,0,0,0-1.426-.409c-.751,0-1.171.428-1.173.948,0,.577.416.838,1.324,1.188,1.21.465,1.829,1.074,1.825,2.113,0,1.227-.959,2.089-2.619,2.083a3.994,3.994,0,0,1-1.961-.483Z"/>
    <path id="Trazado_101" data-name="Trazado 101" d="M176.353,244.594l-.007,2.006,1.819.006,0,.967-1.818-.006-.013,3.766c0,.867.241,1.357.948,1.359a2.928,2.928,0,0,0,.736-.082l.055.952a3.131,3.131,0,0,1-1.126.169,1.759,1.759,0,0,1-1.369-.539,2.583,2.583,0,0,1-.485-1.82l.013-3.81-1.083,0,0-.967,1.082,0,.006-1.674Z"/>
    <path id="Trazado_102" data-name="Trazado 102" d="M179.239,248.789c0-.823-.009-1.53-.05-2.179l1.111,0,.039,1.372h.057a2.1,2.1,0,0,1,1.939-1.524,1.415,1.415,0,0,1,.361.045l0,1.2a1.954,1.954,0,0,0-.433-.045,1.781,1.781,0,0,0-1.708,1.625,3.44,3.44,0,0,0-.06.592l-.013,3.722-1.255,0Z"/>
    <path id="Trazado_103" data-name="Trazado 103" d="M189.927,250.082a3.413,3.413,0,0,1-3.49,3.7,3.322,3.322,0,0,1-3.336-3.605,3.412,3.412,0,0,1,3.476-3.7,3.308,3.308,0,0,1,3.35,3.606m-5.541.053c-.005,1.53.871,2.687,2.112,2.691,1.212,0,2.125-1.133,2.13-2.706,0-1.183-.582-2.685-2.083-2.69s-2.155,1.377-2.159,2.705"/>
    <path id="Trazado_104" data-name="Trazado 104" d="M193.743,252.114a4.443,4.443,0,0,0,2.249.643c1.284,0,2.037-.671,2.04-1.652,0-.909-.515-1.431-1.826-1.941-1.585-.567-2.564-1.394-2.559-2.765,0-1.515,1.264-2.635,3.155-2.629a4.411,4.411,0,0,1,2.148.484l-.35,1.023a3.862,3.862,0,0,0-1.845-.469c-1.328,0-1.835.788-1.838,1.452,0,.908.587,1.358,1.928,1.882,1.643.64,2.476,1.437,2.471,2.866,0,1.5-1.12,2.795-3.414,2.787a5.021,5.021,0,0,1-2.481-.628Z"/>
    <path id="Trazado_105" data-name="Trazado 105" d="M204.5,253.681l-.1-.88h-.043a2.6,2.6,0,0,1-2.14,1.031,1.988,1.988,0,0,1-2.127-2.013c0-1.688,1.508-2.607,4.207-2.584v-.144a1.439,1.439,0,0,0-1.582-1.621,3.466,3.466,0,0,0-1.819.513l-.287-.837a4.345,4.345,0,0,1,2.3-.615c2.136.008,2.649,1.468,2.645,2.868l-.009,2.611a9.936,9.936,0,0,0,.11,1.675Zm-.174-3.566c-1.386-.033-2.96.207-2.964,1.564a1.122,1.122,0,0,0,1.192,1.216,1.741,1.741,0,0,0,1.694-1.163,1.34,1.34,0,0,0,.073-.4Z"/>
    <path id="Trazado_106" data-name="Trazado 106" d="M207.26,248.6c0-.722-.01-1.315-.051-1.892l1.125,0,.068,1.155h.029a2.569,2.569,0,0,1,2.314-1.306c.966,0,2.465.586,2.457,2.981l-.014,4.171-1.27,0,.014-4.026c0-1.126-.411-2.066-1.61-2.07a1.864,1.864,0,0,0-1.8,1.885l-.015,4.2-1.269,0Z"/>
    <path id="Trazado_107" data-name="Trazado 107" d="M216.335,244.774a.787.787,0,0,1-1.573-.006.773.773,0,0,1,.8-.79.755.755,0,0,1,.777.8m-1.445,8.942.024-6.984,1.269,0-.023,6.984Z"/>
    <path id="Trazado_108" data-name="Trazado 108" d="M219.48,244.742l-.007,2.006,1.819.006,0,.967-1.818-.006-.013,3.766c0,.867.241,1.357.948,1.359a2.872,2.872,0,0,0,.736-.083l.055.953a3.154,3.154,0,0,1-1.126.169,1.759,1.759,0,0,1-1.369-.539,2.583,2.583,0,0,1-.485-1.82l.013-3.81-1.083,0,0-.967,1.082,0,.006-1.674Z"/>
    <path id="Trazado_109" data-name="Trazado 109" d="M226.217,253.755l-.1-.88h-.043a2.6,2.6,0,0,1-2.139,1.031,1.99,1.99,0,0,1-2.129-2.013c.005-1.688,1.509-2.607,4.208-2.584v-.144a1.439,1.439,0,0,0-1.582-1.621,3.466,3.466,0,0,0-1.819.513l-.286-.837a4.334,4.334,0,0,1,2.3-.615c2.136.008,2.65,1.468,2.646,2.868l-.01,2.611a9.937,9.937,0,0,0,.11,1.675Zm-.175-3.566c-1.385-.033-2.959.207-2.964,1.564a1.122,1.122,0,0,0,1.193,1.215,1.737,1.737,0,0,0,1.693-1.162,1.374,1.374,0,0,0,.074-.4Z"/>
    <path id="Trazado_110" data-name="Trazado 110" d="M228.975,248.958c0-.823-.01-1.53-.051-2.179l1.111,0,.039,1.371h.058a2.1,2.1,0,0,1,1.938-1.523,1.456,1.456,0,0,1,.361.044l0,1.2a1.951,1.951,0,0,0-.433-.044,1.782,1.782,0,0,0-1.708,1.625,3.548,3.548,0,0,0-.059.591l-.013,3.723-1.256-.005Z"/>
    <path id="Trazado_111" data-name="Trazado 111" d="M234.775,244.836a.787.787,0,0,1-1.573-.005.773.773,0,0,1,.8-.79.753.753,0,0,1,.777.795m-1.445,8.943.024-6.984,1.269,0-.023,6.984Z"/>
    <path id="Trazado_112" data-name="Trazado 112" d="M242.692,250.261a3.413,3.413,0,0,1-3.49,3.7,3.322,3.322,0,0,1-3.336-3.6,3.412,3.412,0,0,1,3.476-3.7,3.308,3.308,0,0,1,3.35,3.606m-5.541.053c-.005,1.53.871,2.687,2.112,2.691,1.212,0,2.125-1.133,2.13-2.706,0-1.183-.582-2.685-2.083-2.69s-2.155,1.377-2.159,2.705"/>
    <path id="Trazado_113" data-name="Trazado 113" d="M246.677,253.825l.033-9.726,1.371,0,3.1,4.931a27.8,27.8,0,0,1,1.735,3.167l.029-.015c-.111-1.3-.136-2.482-.131-4l.014-4.07,1.183,0-.033,9.727-1.27-.005-3.071-4.945a31.109,31.109,0,0,1-1.807-3.253l-.043.013c.068,1.228.093,2.4.088,4.013l-.015,4.156Z"/>
    <path id="Trazado_114" data-name="Trazado 114" d="M262.1,250.328a3.413,3.413,0,0,1-3.49,3.7,3.322,3.322,0,0,1-3.336-3.6,3.411,3.411,0,0,1,3.476-3.7,3.308,3.308,0,0,1,3.35,3.606m-5.541.053c-.005,1.53.871,2.687,2.112,2.691,1.212,0,2.125-1.133,2.13-2.706,0-1.183-.582-2.685-2.083-2.69s-2.155,1.377-2.159,2.705"/>
    <path id="Trazado_115" data-name="Trazado 115" class="cls-8" d="M262.507,253.127a.854.854,0,0,1,.869-.906.911.911,0,0,1-.021,1.819.852.852,0,0,1-.848-.913"/>
    <path id="Trazado_116" data-name="Trazado 116" d="M270.541,245.71h-.029l-1.634.874-.242-.968,2.053-1.089,1.082,0-.032,9.379-1.226,0Z"/>
    <path id="Trazado_117" data-name="Trazado 117" d="M274.7,251.538a2.681,2.681,0,0,1,1.87-2.5l-.014-.042a2.323,2.323,0,0,1-1.479-2.112,2.627,2.627,0,0,1,2.909-2.487,2.423,2.423,0,0,1,2.72,2.318,2.384,2.384,0,0,1-1.552,2.188v.043a2.6,2.6,0,0,1,1.883,2.431c-.006,1.63-1.409,2.722-3.2,2.716-1.963-.006-3.142-1.18-3.138-2.551m5.051-.039c0-1.14-.788-1.691-2.057-2.057A2.038,2.038,0,0,0,276,251.37a1.734,1.734,0,0,0,1.869,1.8,1.7,1.7,0,0,0,1.882-1.667m-3.476-4.7c0,.938.7,1.445,1.783,1.737a1.847,1.847,0,0,0,1.435-1.7,1.458,1.458,0,0,0-1.582-1.535,1.492,1.492,0,0,0-1.636,1.495"/>
    <path id="Trazado_118" data-name="Trazado 118" d="M287.48,245.651l-3.579-.012-.369,2.409a5.18,5.18,0,0,1,.766-.056,3.963,3.963,0,0,1,2.018.513,2.672,2.672,0,0,1,1.334,2.414,3.255,3.255,0,0,1-3.5,3.192,4.586,4.586,0,0,1-2.336-.586l.32-.965a4.222,4.222,0,0,0,2,.526,2.069,2.069,0,0,0,2.229-2.026c-.011-1.213-.816-2.081-2.692-2.088a9.524,9.524,0,0,0-1.3.1l.622-4.5,4.488.015Z"/>
    <path id="Trazado_119" data-name="Trazado 119" d="M297.552,249.727c-.067-1.357-.149-2.988-.13-4.2h-.043c-.336,1.138-.744,2.35-1.239,3.689l-1.734,4.714-.952,0-1.557-4.638c-.457-1.373-.843-2.629-1.113-3.785h-.029c-.033,1.212-.11,2.842-.2,4.3l-.274,4.169-1.2,0,.711-9.724,1.6.006,1.644,4.71c.4,1.2.729,2.268.97,3.279h.043c.249-.98.6-2.047,1.036-3.272l1.748-4.7,1.6,0,.572,9.728-1.226,0Z"/>
    <path id="Trazado_120" data-name="Trazado 120" d="M300.148,254.007l0-.779,1-.963c2.4-2.272,3.489-3.48,3.508-4.9a1.673,1.673,0,0,0-1.854-1.839,3.2,3.2,0,0,0-1.995.786l-.4-.9a4.109,4.109,0,0,1,2.659-.944,2.64,2.64,0,0,1,2.862,2.737c-.006,1.733-1.267,3.128-3.25,5.026l-.753.689v.03l4.214.015,0,1.053Z"/>
    <path id="Trazado_121" data-name="Trazado 121" d="M313.454,249.262c-.011,3.188-1.2,4.945-3.278,4.938-1.832-.006-3.067-1.728-3.086-4.831.011-3.146,1.373-4.872,3.278-4.866,1.977.007,3.1,1.772,3.086,4.759m-5.094.127c-.008,2.439.738,3.826,1.892,3.829,1.3.005,1.924-1.508,1.933-3.9.007-2.308-.579-3.826-1.892-3.831-1.112,0-1.924,1.351-1.933,3.905"/>
    <path id="Trazado_122" data-name="Trazado 122" d="M314.245,254.055l0-.779,1-.964c2.4-2.271,3.489-3.48,3.509-4.895a1.674,1.674,0,0,0-1.855-1.838,3.2,3.2,0,0,0-1.995.786l-.4-.9a4.109,4.109,0,0,1,2.659-.944,2.64,2.64,0,0,1,2.862,2.737c-.006,1.733-1.267,3.127-3.25,5.026l-.753.689v.03l4.214.015,0,1.053Z"/>
    <path id="Trazado_123" data-name="Trazado 123" d="M327.536,249.31c-.011,3.188-1.2,4.945-3.278,4.937-1.832-.006-3.067-1.727-3.086-4.83.011-3.146,1.373-4.873,3.278-4.866,1.978.007,3.1,1.772,3.086,4.759m-5.094.126c-.008,2.439.738,3.827,1.892,3.83,1.3,0,1.925-1.509,1.933-3.9.008-2.308-.579-3.826-1.892-3.83-1.112,0-1.924,1.35-1.933,3.9"/>
    <path id="Trazado_124" data-name="Trazado 124" d="M331.333,252.583a4.446,4.446,0,0,0,2.249.643c1.284,0,2.037-.671,2.041-1.652,0-.909-.515-1.431-1.826-1.941-1.585-.567-2.565-1.394-2.56-2.765.005-1.515,1.264-2.635,3.155-2.629a4.416,4.416,0,0,1,2.149.484l-.35,1.023a3.867,3.867,0,0,0-1.846-.469c-1.327,0-1.835.788-1.837,1.452,0,.908.587,1.358,1.927,1.882,1.643.64,2.477,1.437,2.472,2.866-.005,1.5-1.121,2.795-3.415,2.787a5.017,5.017,0,0,1-2.48-.628Z"/>
    <path id="Trazado_125" data-name="Trazado 125" d="M338.1,252.606a4.443,4.443,0,0,0,2.249.643c1.284,0,2.037-.671,2.041-1.652,0-.909-.515-1.431-1.826-1.94-1.585-.568-2.565-1.394-2.56-2.765.005-1.515,1.264-2.636,3.155-2.629a4.418,4.418,0,0,1,2.149.483l-.35,1.023a3.881,3.881,0,0,0-1.846-.468c-1.327,0-1.835.787-1.837,1.451,0,.908.587,1.358,1.927,1.882,1.643.641,2.477,1.437,2.472,2.866-.005,1.5-1.121,2.8-3.415,2.788a5.028,5.028,0,0,1-2.48-.629Z"/>
    <path id="Trazado_126" data-name="Trazado 126" d="M346.619,251.107l-1.021,3.055-1.3,0,3.338-9.715,1.516.005,3.285,9.738-1.342-.005-1.029-3.062Zm3.192-.971-.943-2.8c-.214-.635-.356-1.213-.5-1.776h-.028c-.146.577-.307,1.167-.5,1.759l-.962,2.81Z"/>
    <rect id="Rect치ngulo_43" data-name="Rect치ngulo 43" width="9.726" height="1.255" transform="translate(356.232 254.198) rotate(-89.8)"/>
    <path id="Trazado_127" data-name="Trazado 127" d="M361.471,254.216l-3.142-9.737,1.357,0,1.5,4.8c.412,1.314.77,2.5,1.026,3.639h.028c.278-1.124.687-2.35,1.125-3.619l1.661-4.8,1.342.005-3.511,9.714Z"/>
  </g>
</svg>
