<svg width="446" height="58" viewBox="0 0 446 58" fill="none" xmlns="http://www.w3.org/2000/svg">
<g clip-path="url(#clip0_403_2572)">
<path d="M396.032 0L379.544 58H429.523L446 0H396.032Z" fill="#253AA0"/>
<path d="M382.732 0L366.245 58H416.224L432.701 0H382.722H382.732Z" fill="#2659A5"/>
<path d="M368.253 0L351.766 58H401.735L418.222 0H368.253Z" fill="#0285C6"/>
<path d="M353.546 0L337.059 58H387.038L403.515 0H353.536H353.546Z" fill="#02B6BA"/>
<path d="M16.4871 0L0 58H371.482L387.969 0H16.4871Z" fill="#4DCEC8"/>
</g>
<path d="M33.704 38.72L33.224 42.08H29.384L30.152 38.72L32.12 31.712H34.616L33.704 38.72ZM34.472 25.712C35.048 25.712 35.512 25.896 35.864 26.264C36.216 26.632 36.392 27.12 36.392 27.728C36.392 28.048 36.328 28.368 36.2 28.688C36.072 29.008 35.888 29.296 35.648 29.552C35.424 29.808 35.152 30.016 34.832 30.176C34.512 30.336 34.152 30.416 33.752 30.416C33.176 30.416 32.712 30.224 32.36 29.84C32.008 29.456 31.832 28.976 31.832 28.4C31.832 28.064 31.896 27.736 32.024 27.416C32.152 27.096 32.328 26.808 32.552 26.552C32.792 26.296 33.072 26.096 33.392 25.952C33.712 25.792 34.072 25.712 34.472 25.712ZM41.1346 22.4H44.7826C45.8706 22.4 46.8466 22.528 47.7106 22.784C48.5906 23.024 49.3266 23.4 49.9186 23.912C50.5266 24.408 50.9906 25.04 51.3106 25.808C51.6306 26.576 51.7906 27.488 51.7906 28.544C51.7906 30.128 51.5666 31.512 51.1186 32.696C50.6866 33.88 50.0786 34.864 49.2946 35.648C48.5266 36.432 47.6146 37.024 46.5586 37.424C45.5026 37.808 44.3666 38 43.1506 38H38.0146L41.1346 22.4ZM43.0546 34.928C43.6946 34.928 44.3026 34.824 44.8786 34.616C45.4706 34.392 45.9826 34.04 46.4146 33.56C46.8626 33.064 47.2146 32.432 47.4706 31.664C47.7266 30.88 47.8546 29.92 47.8546 28.784C47.8546 28.176 47.7746 27.664 47.6146 27.248C47.4546 26.816 47.2306 26.472 46.9426 26.216C46.6706 25.944 46.3346 25.752 45.9346 25.64C45.5506 25.528 45.1346 25.472 44.6866 25.472H44.3506L42.4786 34.928H43.0546ZM56.1581 22.4H59.9981L56.8781 38H53.0381L56.1581 22.4ZM62.6278 33.128C63.0438 33.688 63.5398 34.144 64.1158 34.496C64.6918 34.848 65.2838 35.024 65.8918 35.024C66.4518 35.024 66.8918 34.904 67.2118 34.664C67.5478 34.424 67.7158 34.088 67.7158 33.656C67.7158 33.304 67.5558 33.024 67.2358 32.816C66.9158 32.592 66.4838 32.312 65.9398 31.976L64.5958 31.136C63.8758 30.672 63.3078 30.136 62.8918 29.528C62.4918 28.92 62.2918 28.128 62.2918 27.152C62.2918 26.448 62.4438 25.792 62.7478 25.184C63.0518 24.576 63.4598 24.048 63.9718 23.6C64.4838 23.136 65.0838 22.776 65.7718 22.52C66.4758 22.248 67.2278 22.112 68.0278 22.112C68.9398 22.112 69.8118 22.328 70.6438 22.76C71.4918 23.176 72.2358 23.768 72.8758 24.536L70.4758 26.792C70.0758 26.392 69.6678 26.064 69.2518 25.808C68.8518 25.552 68.3958 25.424 67.8838 25.424C67.3238 25.424 66.9078 25.56 66.6358 25.832C66.3638 26.088 66.2278 26.4 66.2278 26.768C66.2278 27.088 66.3878 27.36 66.7078 27.584C67.0438 27.792 67.5238 28.096 68.1478 28.496L69.5878 29.384C70.3398 29.848 70.8758 30.36 71.1958 30.92C71.5318 31.464 71.6998 32.192 71.6998 33.104C71.6998 33.824 71.5558 34.496 71.2678 35.12C70.9798 35.744 70.5718 36.296 70.0438 36.776C69.5158 37.24 68.8758 37.608 68.1238 37.88C67.3718 38.152 66.5318 38.288 65.6038 38.288C64.6118 38.288 63.6118 38.064 62.6038 37.616C61.6118 37.152 60.7078 36.376 59.8918 35.288L62.6278 33.128ZM76.5018 22.4H81.6378C82.4058 22.4 83.1258 22.48 83.7978 22.64C84.4698 22.784 85.0538 23.024 85.5498 23.36C86.0458 23.696 86.4378 24.136 86.7258 24.68C87.0138 25.224 87.1578 25.888 87.1578 26.672C87.1578 27.808 86.9578 28.776 86.5578 29.576C86.1578 30.36 85.6218 31 84.9498 31.496C84.2778 31.992 83.4938 32.352 82.5978 32.576C81.7178 32.8 80.7898 32.912 79.8138 32.912H78.2298L77.2218 38H73.3818L76.5018 22.4ZM80.2698 29.888C81.2618 29.888 82.0218 29.664 82.5498 29.216C83.0938 28.768 83.3658 28.112 83.3658 27.248C83.3658 26.624 83.1658 26.168 82.7658 25.88C82.3818 25.576 81.8298 25.424 81.1098 25.424H79.7178L78.8538 29.888H80.2698ZM94.4467 38.288C93.5507 38.288 92.7267 38.144 91.9747 37.856C91.2387 37.552 90.6067 37.12 90.0787 36.56C89.5507 36 89.1347 35.312 88.8307 34.496C88.5427 33.664 88.3987 32.72 88.3987 31.664C88.3987 30.208 88.6227 28.896 89.0707 27.728C89.5347 26.544 90.1347 25.536 90.8707 24.704C91.6227 23.872 92.4787 23.232 93.4387 22.784C94.4147 22.336 95.4227 22.112 96.4627 22.112C97.3587 22.112 98.1747 22.264 98.9107 22.568C99.6627 22.856 100.303 23.28 100.831 23.84C101.359 24.4 101.767 25.096 102.055 25.928C102.359 26.744 102.511 27.68 102.511 28.736C102.511 30.192 102.279 31.512 101.815 32.696C101.367 33.864 100.767 34.864 100.015 35.696C99.2787 36.528 98.4227 37.168 97.4467 37.616C96.4707 38.064 95.4707 38.288 94.4467 38.288ZM96.2707 25.424C95.8227 25.424 95.3667 25.568 94.9027 25.856C94.4387 26.144 94.0147 26.552 93.6307 27.08C93.2467 27.608 92.9347 28.24 92.6947 28.976C92.4547 29.712 92.3347 30.528 92.3347 31.424C92.3347 32.56 92.5347 33.44 92.9347 34.064C93.3507 34.672 93.9187 34.976 94.6387 34.976C95.0867 34.976 95.5427 34.832 96.0067 34.544C96.4707 34.256 96.8947 33.848 97.2787 33.32C97.6627 32.792 97.9747 32.16 98.2147 31.424C98.4547 30.688 98.5747 29.872 98.5747 28.976C98.5747 27.84 98.3667 26.968 97.9507 26.36C97.5507 25.736 96.9907 25.424 96.2707 25.424ZM106.877 22.4H110.573L112.733 29.792L113.501 33.296H113.597C113.629 32.88 113.661 32.424 113.693 31.928C113.725 31.432 113.765 30.928 113.813 30.416C113.861 29.904 113.917 29.392 113.981 28.88C114.045 28.352 114.125 27.856 114.221 27.392L115.229 22.4H118.877L115.757 38H112.061L109.901 30.608L109.181 27.104H109.085C109.005 28 108.917 28.968 108.821 30.008C108.741 31.032 108.605 32.016 108.413 32.96L107.405 38H103.757L106.877 22.4ZM122.533 22.4H126.373L123.253 38H119.413L122.533 22.4ZM129.963 22.4H134.955C135.739 22.4 136.459 22.472 137.115 22.616C137.787 22.744 138.363 22.952 138.843 23.24C139.323 23.528 139.699 23.904 139.971 24.368C140.243 24.816 140.379 25.36 140.379 26C140.379 26.848 140.091 27.624 139.515 28.328C138.939 29.032 138.107 29.552 137.019 29.888L136.971 29.984C138.731 30.416 139.611 31.36 139.611 32.816C139.611 33.76 139.419 34.56 139.035 35.216C138.667 35.872 138.171 36.408 137.547 36.824C136.923 37.224 136.195 37.52 135.363 37.712C134.531 37.904 133.659 38 132.747 38H126.843L129.963 22.4ZM133.851 28.64C134.795 28.64 135.459 28.464 135.843 28.112C136.243 27.76 136.443 27.28 136.443 26.672C136.443 25.776 135.739 25.328 134.331 25.328H133.227L132.555 28.64H133.851ZM133.035 35.072C133.995 35.072 134.715 34.888 135.195 34.52C135.675 34.136 135.915 33.616 135.915 32.96C135.915 31.808 135.211 31.232 133.803 31.232H132.027L131.259 35.072H133.035ZM144.658 22.4H148.498L146.002 34.784H151.666L151.042 38H141.538L144.658 22.4ZM156.986 22.4H166.49L165.866 25.616H160.154L159.626 28.352H164.474L163.85 31.568H159.002L158.33 34.784H164.234L163.61 38H153.866L156.986 22.4ZM175.282 32.528L172.81 22.4H176.794L177.298 25.856C177.394 26.464 177.482 27.04 177.562 27.584C177.642 28.112 177.73 28.688 177.826 29.312H177.922C178.242 28.688 178.538 28.104 178.81 27.56C179.098 27 179.41 26.416 179.746 25.808L181.618 22.4H185.746L179.122 32.528L178.018 38H174.202L175.282 32.528ZM189.651 31.568L189.603 29.744C189.571 28.992 189.547 28.264 189.531 27.56C189.515 26.84 189.507 26.08 189.507 25.28H189.411C189.091 26.048 188.787 26.8 188.499 27.536C188.227 28.256 187.923 28.992 187.587 29.744L186.771 31.568H189.651ZM189.747 34.448H185.451L183.843 38H179.619L187.779 22.4H192.387L193.875 38H189.843L189.747 34.448ZM203.228 22.4H212.732L212.108 25.616H206.396L205.868 28.352H210.716L210.092 31.568H205.244L204.572 34.784H210.476L209.852 38H200.108L203.228 22.4ZM216.096 22.4H219.792L221.952 29.792L222.72 33.296H222.816C222.848 32.88 222.88 32.424 222.912 31.928C222.944 31.432 222.984 30.928 223.032 30.416C223.08 29.904 223.136 29.392 223.2 28.88C223.264 28.352 223.344 27.856 223.44 27.392L224.448 22.4H228.096L224.976 38H221.28L219.12 30.608L218.4 27.104H218.304C218.224 28 218.136 28.968 218.04 30.008C217.96 31.032 217.824 32.016 217.632 32.96L216.624 38H212.976L216.096 22.4ZM236.557 22.4H246.061L245.437 25.616H239.725L239.101 28.832H243.949L243.325 32.048H238.477L237.277 38H233.437L236.557 22.4ZM252.534 31.568L252.486 29.744C252.454 28.992 252.43 28.264 252.414 27.56C252.398 26.84 252.39 26.08 252.39 25.28H252.294C251.974 26.048 251.67 26.8 251.382 27.536C251.11 28.256 250.806 28.992 250.47 29.744L249.654 31.568H252.534ZM252.63 34.448H248.334L246.726 38H242.502L250.662 22.4H255.27L256.758 38H252.726L252.63 34.448ZM263.707 29.6H265.099C266.139 29.6 266.907 29.376 267.403 28.928C267.915 28.464 268.171 27.856 268.171 27.104C268.171 26.528 267.971 26.104 267.571 25.832C267.187 25.56 266.635 25.424 265.915 25.424H264.523L263.707 29.6ZM266.443 22.4C267.227 22.4 267.955 22.472 268.627 22.616C269.299 22.76 269.883 23 270.379 23.336C270.875 23.656 271.259 24.08 271.531 24.608C271.819 25.136 271.963 25.776 271.963 26.528C271.963 27.248 271.867 27.904 271.674 28.496C271.499 29.072 271.243 29.592 270.907 30.056C270.571 30.504 270.171 30.896 269.707 31.232C269.243 31.552 268.739 31.816 268.195 32.024L270.523 38H266.491L264.691 32.624H263.083L262.027 38H258.187L261.307 22.4H266.443ZM276.002 22.4H279.986L280.994 29.12L281.354 31.76H281.45L282.818 29.12L286.466 22.4H290.45L287.33 38H283.73L284.834 32.816C284.914 32.416 285.01 31.976 285.122 31.496C285.25 31.016 285.386 30.536 285.53 30.056C285.674 29.576 285.818 29.104 285.962 28.64C286.106 28.176 286.242 27.744 286.37 27.344H286.298L284.354 30.992L281.042 36.656H279.602L278.594 30.992L278.114 27.344H278.042C278.01 27.744 277.97 28.184 277.922 28.664C277.89 29.128 277.85 29.6 277.802 30.08C277.754 30.56 277.698 31.04 277.634 31.52C277.586 31.984 277.522 32.416 277.442 32.816L276.386 38H272.882L276.002 22.4ZM298.8 31.568L298.752 29.744C298.72 28.992 298.696 28.264 298.68 27.56C298.664 26.84 298.656 26.08 298.656 25.28H298.56C298.24 26.048 297.936 26.8 297.648 27.536C297.376 28.256 297.072 28.992 296.736 29.744L295.92 31.568H298.8ZM298.896 34.448H294.6L292.992 38H288.768L296.928 22.4H301.536L303.024 38H298.992L298.896 34.448ZM304.586 31.664C304.586 30.272 304.802 28.992 305.234 27.824C305.682 26.656 306.29 25.648 307.058 24.8C307.826 23.952 308.714 23.296 309.722 22.832C310.746 22.352 311.834 22.112 312.986 22.112C313.898 22.112 314.722 22.336 315.458 22.784C316.194 23.216 316.794 23.84 317.258 24.656L314.666 26.672C314.106 25.84 313.482 25.424 312.794 25.424C312.234 25.424 311.69 25.584 311.162 25.904C310.65 26.208 310.194 26.632 309.794 27.176C309.41 27.704 309.098 28.336 308.858 29.072C308.634 29.808 308.522 30.592 308.522 31.424C308.522 32.56 308.754 33.44 309.218 34.064C309.682 34.672 310.442 34.976 311.498 34.976C311.914 34.976 312.322 34.872 312.722 34.664C313.138 34.456 313.53 34.192 313.898 33.872L315.482 36.32C315.258 36.528 314.986 36.752 314.666 36.992C314.346 37.216 313.978 37.424 313.562 37.616C313.162 37.808 312.714 37.968 312.218 38.096C311.738 38.224 311.226 38.288 310.682 38.288C309.77 38.288 308.938 38.144 308.186 37.856C307.434 37.552 306.794 37.12 306.266 36.56C305.738 36 305.322 35.312 305.018 34.496C304.73 33.664 304.586 32.72 304.586 31.664ZM320.767 22.4H324.607L321.487 38H317.647L320.767 22.4ZM332.901 31.568L332.853 29.744C332.821 28.992 332.797 28.264 332.781 27.56C332.765 26.84 332.757 26.08 332.757 25.28H332.661C332.341 26.048 332.037 26.8 331.749 27.536C331.477 28.256 331.173 28.992 330.837 29.744L330.021 31.568H332.901ZM332.997 34.448H328.701L327.093 38H322.869L331.029 22.4H335.637L337.125 38H333.093L332.997 34.448ZM340.479 33.128C340.895 33.688 341.391 34.144 341.967 34.496C342.543 34.848 343.135 35.024 343.743 35.024C344.303 35.024 344.743 34.904 345.063 34.664C345.399 34.424 345.567 34.088 345.567 33.656C345.567 33.304 345.407 33.024 345.087 32.816C344.767 32.592 344.335 32.312 343.791 31.976L342.447 31.136C341.727 30.672 341.159 30.136 340.743 29.528C340.343 28.92 340.143 28.128 340.143 27.152C340.143 26.448 340.295 25.792 340.599 25.184C340.903 24.576 341.311 24.048 341.823 23.6C342.335 23.136 342.935 22.776 343.623 22.52C344.327 22.248 345.079 22.112 345.879 22.112C346.791 22.112 347.663 22.328 348.495 22.76C349.343 23.176 350.087 23.768 350.727 24.536L348.327 26.792C347.927 26.392 347.519 26.064 347.103 25.808C346.703 25.552 346.247 25.424 345.735 25.424C345.175 25.424 344.759 25.56 344.487 25.832C344.215 26.088 344.079 26.4 344.079 26.768C344.079 27.088 344.239 27.36 344.559 27.584C344.895 27.792 345.375 28.096 345.999 28.496L347.439 29.384C348.191 29.848 348.727 30.36 349.047 30.92C349.383 31.464 349.551 32.192 349.551 33.104C349.551 33.824 349.407 34.496 349.119 35.12C348.831 35.744 348.423 36.296 347.895 36.776C347.367 37.24 346.727 37.608 345.975 37.88C345.223 38.152 344.383 38.288 343.455 38.288C342.463 38.288 341.463 38.064 340.455 37.616C339.463 37.152 338.559 36.376 337.743 35.288L340.479 33.128ZM354.401 25.28L354.881 21.92H358.721L357.953 25.28L355.985 32.288H353.489L354.401 25.28ZM353.633 38.288C353.057 38.288 352.593 38.104 352.241 37.736C351.889 37.368 351.713 36.88 351.713 36.272C351.713 35.952 351.777 35.632 351.905 35.312C352.033 34.992 352.209 34.704 352.433 34.448C352.673 34.192 352.953 33.984 353.273 33.824C353.593 33.664 353.953 33.584 354.353 33.584C354.929 33.584 355.393 33.776 355.745 34.16C356.097 34.544 356.273 35.024 356.273 35.6C356.273 35.936 356.209 36.264 356.081 36.584C355.953 36.904 355.769 37.192 355.529 37.448C355.305 37.704 355.033 37.904 354.713 38.048C354.393 38.208 354.033 38.288 353.633 38.288Z" fill="white"/>
<defs>
<clipPath id="clip0_403_2572">
<rect width="446" height="58" fill="white"/>
</clipPath>
</defs>
</svg>
